<svg version="1.1" xmlns="http://www.w3.org/2000/svg" xmlns:xlink="http://www.w3.org/1999/xlink" width="51.87202" height="98.99376" viewBox="0,0,51.87202,98.99376"><g transform="translate(-293.59329,-147.46554)"><g data-paper-data="{&quot;isPaintingLayer&quot;:true}" fill-rule="nonzero" stroke-linejoin="miter" stroke-miterlimit="10" stroke-dasharray="" stroke-dashoffset="0" style="mix-blend-mode: normal"><path d="M299.83333,207.66668v-55.33333h40.33333v55.33333z" fill="#1e2d3a" stroke="none" stroke-width="0" stroke-linecap="butt"/><text transform="translate(304.89814,223.97287) scale(0.44597,0.39997)" font-size="40" xml:space="preserve" fill="#ffffff" fill-rule="nonzero" stroke="none" stroke-width="1" stroke-linecap="butt" stroke-linejoin="miter" stroke-miterlimit="10" stroke-dasharray="" stroke-dashoffset="0" font-family="Pixel" font-weight="normal" text-anchor="start" style="mix-blend-mode: normal"><tspan x="0" dy="0">Oli</tspan></text><text transform="translate(293.68981,232.47375) scale(0.19303,0.19303)" font-size="40" xml:space="preserve" fill="#ffffff" fill-rule="nonzero" stroke="none" stroke-width="1" stroke-linecap="butt" stroke-linejoin="miter" stroke-miterlimit="10" stroke-dasharray="" stroke-dashoffset="0" font-family="Pixel" font-weight="normal" text-anchor="start" style="mix-blend-mode: normal"><tspan x="0" dy="0">More CPS 1+</tspan></text><path d="M300.23148,166.14468h39" fill="none" stroke="#141e26" stroke-width="6" stroke-linecap="round"/><path d="M300.23148,181.14469h39" fill="none" stroke="#141e26" stroke-width="6" stroke-linecap="round"/><path d="M300.23148,196.14468h39" fill="none" stroke="#141e26" stroke-width="6" stroke-linecap="round"/><path d="M307.00347,172.59592c0,-1.38071 1.11929,-2.5 2.5,-2.5c1.38071,0 2.5,1.11929 2.5,2.5c0,1.38071 -1.11929,2.5 -2.5,2.5c-1.38071,0 -2.5,-1.11929 -2.5,-2.5z" fill="#141e26" stroke="none" stroke-width="0.5" stroke-linecap="butt"/><path d="M324.75347,172.97092c0,-1.38071 1.11929,-2.5 2.5,-2.5c1.38071,0 2.5,1.11929 2.5,2.5c0,1.38071 -1.11929,2.5 -2.5,2.5c-1.38071,0 -2.5,-1.11929 -2.5,-2.5z" fill="#141e26" stroke="none" stroke-width="0.5" stroke-linecap="butt"/><path d="M306.50347,158.47092c0,-1.38071 1.11929,-2.5 2.5,-2.5c1.38071,0 2.5,1.11929 2.5,2.5c0,1.38071 -1.11929,2.5 -2.5,2.5c-1.38071,0 -2.5,-1.11929 -2.5,-2.5z" fill="#141e26" stroke="none" stroke-width="0.5" stroke-linecap="butt"/><path d="M325.62847,157.97092c0,-1.38071 1.11929,-2.5 2.5,-2.5c1.38071,0 2.5,1.11929 2.5,2.5c0,1.38071 -1.11929,2.5 -2.5,2.5c-1.38071,0 -2.5,-1.11929 -2.5,-2.5z" fill="#141e26" stroke="none" stroke-width="0.5" stroke-linecap="butt"/><path d="M306.62847,189.09592c0,-1.38071 1.11929,-2.5 2.5,-2.5c1.38071,0 2.5,1.11929 2.5,2.5c0,1.38071 -1.11929,2.5 -2.5,2.5c-1.38071,0 -2.5,-1.11929 -2.5,-2.5z" fill="#141e26" stroke="none" stroke-width="0.5" stroke-linecap="butt"/><path d="M324.50347,189.09592c0,-1.38071 1.11929,-2.5 2.5,-2.5c1.38071,0 2.5,1.11929 2.5,2.5c0,1.38071 -1.11929,2.5 -2.5,2.5c-1.38071,0 -2.5,-1.11929 -2.5,-2.5z" fill="#141e26" stroke="none" stroke-width="0.5" stroke-linecap="butt"/><path d="M309.12847,201.47092c1.38148,0 3.87602,3.16013 2.15454,4.14383c-0.43488,0.73685 -1.23699,1.23117 -2.15454,1.23117c-1.38071,0 -2.5,-1.11929 -2.5,-2.5c0,-0.26825 0.04225,-0.52663 0.12045,-0.76885c-0.21371,-1.13539 0.3202,-2.10615 2.37955,-2.10615z" fill="#141e26" stroke="none" stroke-width="0.5" stroke-linecap="butt"/><path d="M323.75347,203.59592c0,-1.38071 1.11929,-2.5 2.5,-2.5c1.38071,0 2.5,1.11929 2.5,2.5c0,1.38071 -1.11929,2.5 -2.5,2.5c-1.38071,0 -2.5,-1.11929 -2.5,-2.5z" fill="#141e26" stroke="none" stroke-width="0.5" stroke-linecap="butt"/><path d="M312.87847,189.34592c0,1.38071 -1.11929,2.5 -2.5,2.5c-0.35318,0 -0.68925,-0.07324 -0.99386,-0.20535c-0.20161,0.05244 -0.41312,0.08035 -0.63114,0.08035c-0.72544,0 -1.37871,-0.30899 -1.83539,-0.80253c-0.81613,-0.2105 -1.43522,-0.60756 -1.5498,-1.18044c-0.3829,-0.43924 -0.61481,-1.01355 -0.61481,-1.64202c0,-1.38071 1.11929,-2.5 2.5,-2.5c0.37399,0 0.72881,0.08212 1.04739,0.22932c1.05836,-0.17658 2.08453,0.11704 2.82602,1.13463c1.01509,0.31807 1.75158,1.26606 1.75158,2.38605z" fill="#1e2d3a" stroke="none" stroke-width="0.5" stroke-linecap="butt"/><path d="M328.09035,186.47092c0.44927,-0.29951 1.1882,0.0256 1.8168,0.55596c0.32396,0.2202 0.59348,0.51451 0.78423,0.85853c0.30952,0.45325 0.46302,0.90861 0.31209,1.21051c0,0.46753 -0.12834,0.90509 -0.35172,1.27937c-0.22368,2.72211 -3.62658,3.50382 -5.15839,1.27294c-1.17624,-0.12084 -2.29212,-0.57616 -3.08621,-1.40478c-2.50212,-2.61091 3.41256,-5.12879 5.44693,-3.77254z" fill="#1e2d3a" stroke="none" stroke-width="0.5" stroke-linecap="butt"/><path d="M306.54505,205.7243c-4.50076,-2.25038 1.96896,-8.83449 5.56949,-3.62141c3.55183,5.14255 -5.62254,6.81828 -5.44895,3.69373z" fill="#1e2d3a" stroke="none" stroke-width="0.5" stroke-linecap="butt"/><path d="M323.46556,206.6516c-5.49865,-1.37466 -0.04983,-7.85886 3.9352,-6.86261c0.4489,-0.42934 1.05751,-0.69307 1.72772,-0.69307c1.38071,0 2.5,1.11929 2.5,2.5c0,0.23206 -0.03161,0.45672 -0.09078,0.66993c-0.01767,2.76748 -4.69916,5.22899 -8.07214,4.38575z" fill="#1e2d3a" stroke="none" stroke-width="0.5" stroke-linecap="butt"/><path d="M324.37587,170.91596c2.38277,-2.7799 6.85451,-0.61081 5.9234,2.80326c0.05169,0.20028 0.0792,0.41027 0.0792,0.6267c0,1.38071 -1.11929,2.5 -2.5,2.5c-1.2161,0.94154 -6.06467,-2.94087 -3.5026,-5.92996z" fill="#1e2d3a" stroke="none" stroke-width="0.5" stroke-linecap="butt"/><path d="M311.87404,173.49599c-0.03357,0.56701 -0.25612,1.08318 -0.60555,1.4864c-0.51839,0.84152 -1.26766,1.38719 -2.06186,0.85772c-1.30056,-0.08829 -2.32816,-1.17123 -2.32816,-2.49418c0,-0.27509 0.04444,-0.53981 0.12651,-0.78736c-0.001,-0.02909 -0.00151,-0.05831 -0.00151,-0.08764c0,-1.38071 1.11929,-2.5 2.5,-2.5c1.38071,0 2.5,1.11929 2.5,2.5c0,0.14111 -0.01169,0.27949 -0.03416,0.41422c-0.01315,0.19117 -0.04564,0.39786 -0.09527,0.61084z" fill="#1e2d3a" stroke="none" stroke-width="0.5" stroke-linecap="butt"/><path d="M331.75347,160.78342c-2.17044,1.2209 -10.40938,0.31403 -10.625,-2.8125c-0.39024,-5.65853 8.62536,-5.06187 10.64384,-1.52954c0.73685,0.43488 1.23116,1.23699 1.23116,2.15454c0,0.81357 -0.38862,1.53638 -0.99036,1.99291c-0.07696,0.07451 -0.16278,0.14011 -0.25964,0.19459z" fill="#1e2d3a" stroke="none" stroke-width="0.5" stroke-linecap="butt"/><path d="M307.12847,161.28342c-1.71371,-1.02822 -4.15211,-6.06908 -1.0668,-7.41052c4.92127,-2.13968 6.03846,2.94325 10.10935,2.26477c0.14831,-0.02742 0.3012,-0.04176 0.45745,-0.04176c1.38071,0 2.5,1.11929 2.5,2.5c0,1.25483 -0.92451,2.29374 -2.12954,2.47274c-1.6171,0.5285 -8.41012,1.09097 -9.87046,0.21476z" fill="#1e2d3a" stroke="none" stroke-width="0.5" stroke-linecap="butt"/><path d="M306.38092,204.72092c3.24581,-0.05735 6.60023,-0.03567 9.875,-0.125c2.10664,-0.05747 4.13496,-1.23872 6.37255,-1.25c4.83327,-0.02438 9.66677,-0.03164 14.5,0c0.10306,0.00068 1.37484,0.2647 1.375,0.25c0.0731,-6.62459 -0.01989,-13.25003 0,-19.875c0.02681,-8.93174 0.69798,-17.42124 0.625,-26.37531c-0.00615,-0.75383 -0.0138,-3.99778 -0.375,-4.49969c-0.31541,-0.43828 -2.82286,0.40104 -3.2351,0.4694c-2.85777,0.47398 -3.63842,0.53292 -6.98883,0.89031c-7.15699,0.76343 -13.55551,-2.10437 -20.50028,-1.73471c-1.3377,0.0712 -3.12063,1.51211 -4.53551,1.82645c-0.30109,0.06689 -0.62574,0.113 -0.95443,0.12743c-0.1096,0.0429 -0.22297,0.07828 -0.33947,0.10552c-0.39515,0.40443 -0.6929,0.77396 -0.69639,1.09629c-0.03924,3.61455 0.01969,7.22959 0,10.84431c-0.00218,0.39998 -0.04716,1.00516 -0.1282,1.71467c0.01173,0.11227 0.01853,0.22523 0.02095,0.33903c0.0356,1.66952 -0.86817,3.52149 -0.89276,6.07752c-0.06704,6.9703 -0.06779,13.94159 0,20.91188c0.02916,2.99865 1.39509,5.86639 1.30102,8.81708c1.22836,0.14263 2.65928,0.4237 4.57643,0.38983zM307.75347,147.47092c6.92026,-0.1341 13.22398,2.28839 20.305,1.75628c4.53159,-0.34053 11.28712,-3.23654 15.3825,-0.50628c1.45875,0.9725 0.27733,3.49746 0.3125,5.25031c0.12702,6.32968 0.95373,12.8511 -0.09747,19.13957c-1.69606,10.14618 5.60556,26.68263 -1.03431,34.42914c-1.31987,1.53985 -4.17494,0.8087 -5.866,0.80598c-10.55226,-0.01692 -19.79696,1.24343 -30.12723,1.375c-0.0915,0.00116 -9.58492,0.47768 -9.72343,-2.01557c-0.11267,-0.17356 -0.20439,-0.36199 -0.27158,-0.56168c-0.45058,-0.49886 -0.68579,-1.15977 -0.52056,-1.93751c0.72718,-3.423 -0.60107,-5.94715 -0.60942,-9.48524c-0.01623,-6.87041 -0.01107,-13.74086 -0.00095,-20.61129c-0.27506,-0.32279 -0.46256,-0.73895 -0.51462,-1.24896c-0.19937,-1.95327 0.7319,-3.83602 1.22549,-5.71437c0.04415,-0.20587 0.09056,-0.40409 0.1393,-0.59217c0.09067,-0.44315 0.14779,-0.88645 0.15078,-1.33076c0.02463,-3.6674 -0.03138,-7.3351 0,-11.00245c0.0129,-1.5086 1.93123,-5.12153 3.76556,-5.22343c0.39132,-0.25403 0.85815,-0.40157 1.35944,-0.40157c0.03994,0 0.07966,0.00094 0.11914,0.00279c1.99165,-1.194 4.83606,-2.10512 6.00586,-2.12779z" fill="#000000" stroke="none" stroke-width="0.5" stroke-linecap="butt"/><text transform="translate(301.25347,243.6218) scale(0.27024,0.27024)" font-size="40" xml:space="preserve" fill="#ffffff" fill-rule="nonzero" stroke="none" stroke-width="1" stroke-linecap="butt" stroke-linejoin="miter" stroke-miterlimit="10" stroke-dasharray="" stroke-dashoffset="0" font-family="Pixel" font-weight="normal" text-anchor="start" style="mix-blend-mode: normal"><tspan x="0" dy="0">100$</tspan></text></g></g></svg>