<svg version="1.1" xmlns="http://www.w3.org/2000/svg" xmlns:xlink="http://www.w3.org/1999/xlink" width="90.90776" height="136.22346" viewBox="0,0,90.90776,136.22346"><defs><linearGradient x1="260.34455" y1="183.40945" x2="279.62108" y2="202.00599" gradientUnits="userSpaceOnUse" id="color-1"><stop offset="0" stop-color="#88bdbd"/><stop offset="1" stop-color="#4a6666"/></linearGradient><linearGradient x1="221.82457" y1="178.40945" x2="202.54803" y2="197.00599" gradientUnits="userSpaceOnUse" id="color-2"><stop offset="0" stop-color="#88bdbd"/><stop offset="1" stop-color="#4a6666"/></linearGradient><linearGradient x1="250.5791" y1="214.52655" x2="250.5791" y2="241.69465" gradientUnits="userSpaceOnUse" id="color-3"><stop offset="0" stop-color="#88bdbd"/><stop offset="1" stop-color="#4a6666"/></linearGradient><linearGradient x1="225.5791" y1="214.52655" x2="225.5791" y2="241.69465" gradientUnits="userSpaceOnUse" id="color-4"><stop offset="0" stop-color="#88bdbd"/><stop offset="1" stop-color="#4a6666"/></linearGradient><linearGradient x1="239.0791" y1="175.36132" x2="239.0791" y2="213.36132" gradientUnits="userSpaceOnUse" id="color-5"><stop offset="0" stop-color="#88bdbd"/><stop offset="1" stop-color="#4a6666"/></linearGradient><linearGradient x1="239.03241" y1="104.92616" x2="239.03241" y2="184.92616" gradientUnits="userSpaceOnUse" id="color-6"><stop offset="0" stop-color="#88bdbd"/><stop offset="1" stop-color="#4a6666"/></linearGradient><linearGradient x1="242.1076" y1="107.59025" x2="242.1076" y2="149.0765" gradientUnits="userSpaceOnUse" id="color-7"><stop offset="0" stop-color="#ffffff" stop-opacity="0"/><stop offset="1" stop-color="#ffffff" stop-opacity="0"/></linearGradient><linearGradient x1="245.03238" y1="119.31157" x2="245.03238" y2="169.64491" gradientUnits="userSpaceOnUse" id="color-8"><stop offset="0" stop-color="#00374e"/><stop offset="1" stop-color="#000000"/></linearGradient><linearGradient x1="242.2253" y1="140.77583" x2="242.2253" y2="182.26207" gradientUnits="userSpaceOnUse" id="color-9"><stop offset="0" stop-color="#ffffff" stop-opacity="0"/><stop offset="1" stop-color="#ffffff" stop-opacity="0"/></linearGradient><linearGradient x1="239.75592" y1="128.31158" x2="239.75592" y2="163.31158" gradientUnits="userSpaceOnUse" id="color-10"><stop offset="0" stop-color="#00a9ff"/><stop offset="1" stop-color="#004060"/></linearGradient><linearGradient x1="263.97554" y1="128.31158" x2="263.97554" y2="163.31158" gradientUnits="userSpaceOnUse" id="color-11"><stop offset="0" stop-color="#00a9ff"/><stop offset="1" stop-color="#004060"/></linearGradient></defs><g transform="translate(-195.48971,-107.09454)"><g data-paper-data="{&quot;isPaintingLayer&quot;:true}" fill-rule="nonzero" stroke-linejoin="miter" stroke-miterlimit="10" stroke-dasharray="" stroke-dashoffset="0" style="mix-blend-mode: normal"><g data-paper-data="{&quot;index&quot;:null}"><path d="M274.06669,207.76349l-19.27654,-18.59654l11.10879,-11.51498l19.27654,18.59654z" fill="url(#color-1)" stroke="none" stroke-width="0" stroke-linecap="butt"/><path d="M250.27981,165.35335c0,0 28.57423,23.76303 33.61766,28.52356c1.89707,1.79066 -6.26038,9.43835 -10.11428,12.93561c-1.00993,0.91647 -31.78956,-30.66554 -31.78956,-30.66554" fill="none" stroke="#000000" stroke-width="5" stroke-linecap="round"/></g><g><path d="M196.99363,191.2485l19.27654,-18.59655l11.10879,11.51499l-19.27654,18.59655z" fill="url(#color-2)" stroke="none" stroke-width="0" stroke-linecap="butt"/><path d="M240.17546,171.14697c0,0 -30.77962,31.58202 -31.78956,30.66554c-3.85389,-3.49725 -12.01134,-11.14494 -10.11427,-12.9356c5.04342,-4.76053 33.61765,-28.52356 33.61765,-28.52356" fill="none" stroke="#000000" stroke-width="5" stroke-linecap="round"/></g><path d="M242.5791,241.69465v-27.16811h16v27.16811z" fill="url(#color-3)" stroke="none" stroke-width="0" stroke-linecap="butt"/><path d="M258.09342,196.01604c0,0 1.35888,44.71014 -0.00189,44.80196c-5.19269,0.3504 -16.36033,0.91945 -16.33191,-1.72644c0.07556,-7.03421 2.81268,-44.62798 2.81268,-44.62798" fill="none" stroke="#000000" stroke-width="5" stroke-linecap="round"/><path d="M217.5791,241.69465v-27.16811h16v27.16811z" fill="url(#color-4)" stroke="none" stroke-width="0" stroke-linecap="butt"/><path d="M233.09342,196.01604c0,0 1.35889,44.71014 -0.00188,44.80196c-5.19268,0.3504 -16.36033,0.91945 -16.33191,-1.72644c0.07556,-7.03421 2.81268,-44.62798 2.81268,-44.62798" fill="none" stroke="#000000" stroke-width="5" stroke-linecap="round"/><path d="M218.5791,213.36132v-38h41v38z" fill="url(#color-5)" stroke="none" stroke-width="0" stroke-linecap="butt"/><path d="M259.5791,173.79691c0,0 3.26786,38.39929 -0.00454,38.47816c-12.48742,0.30094 -42.54988,0.78967 -42.48154,-1.48275c0.21792,-7.24584 1.15275,-38.32874 1.15275,-38.32874" fill="none" stroke="#000000" stroke-width="5" stroke-linecap="round"/><path d="M201.69908,144.59283c0,-16.26958 7.04666,-23.93714 20.99058,-30.18663c4.98961,-2.23629 13.18761,-6.48003 19.00942,-6.48003c22.09139,0 37.33334,14.90861 37.33334,37c0,22.09139 -13.24194,39 -35.33334,39c-22.09139,0 -42,-17.24195 -42,-39.33334z" fill="url(#color-6)" stroke="none" stroke-width="0" stroke-linecap="butt"/><path d="M203.4885,149.0765c0,0 -0.76506,-9.01732 1.75613,-17.68105c1.67015,-5.73925 5.7177,-11.32334 9.01803,-14.0281c5.34374,-4.3794 24.3324,-7.77281 24.89251,-7.77281c5.98256,0 19.16318,-2.36981 27.04539,3.76735c2.74676,2.13865 6.21429,7.29034 7.394,12.98384c0.66716,3.21982 4.32278,3.84217 5.35645,6.82057c2.17021,6.25326 1.87083,13.80402 1.87083,13.80402" data-paper-data="{&quot;index&quot;:null}" fill="url(#color-7)" stroke="#000000" stroke-width="5" stroke-linecap="round"/><path d="M280.86573,144.47824c0,6.94945 -3.34397,16.90768 -9.8283,21.46193c-6.48458,4.55443 -16.10974,3.70474 -26.00503,3.70474c-19.79021,0 -35.83334,-11.2675 -35.83334,-25.16667c0,-13.89917 16.04313,-25.16667 35.83334,-25.16667c19.79021,0 35.83334,11.2675 35.83334,25.16667z" fill="url(#color-8)" stroke="none" stroke-width="0" stroke-linecap="butt"/><path d="M279.48852,140.88201c0,0 2.54213,8.04982 1.18285,13.04332c-1.14796,4.2172 -6.13,5.01188 -7.0768,9.58128c-1.17971,5.69349 -4.64724,10.84518 -7.394,12.98383c-7.88221,6.13716 -21.06283,5.43402 -27.04539,5.43402c-4.89376,0 -18.85812,-4.49404 -24.89251,-9.43948c-3.30033,-2.70476 -7.34788,-8.28885 -9.01803,-14.0281c-2.52119,-8.66373 -1.75613,-17.68105 -1.75613,-17.68105" fill="url(#color-9)" stroke="#000000" stroke-width="5" stroke-linecap="round"/><path d="M279.15518,142.96913c0,0 1.50727,7.48614 -0.56061,13.90206c-1.17971,3.66025 -4.64724,6.97217 -7.394,8.34707c-7.88221,3.94546 -21.06283,3.70772 -27.04539,3.70772c-4.89376,0 -18.85812,-3.10343 -24.89251,-6.28276c-3.30033,-1.73884 -7.34788,-5.32875 -9.01803,-9.01841c-2.52119,-5.56975 -1.75613,-11.36682 -1.75613,-11.36682" fill="none" stroke="#000000" stroke-width="5" stroke-linecap="round"/><path d="M208.4885,147.59434c0,0 -0.76506,-5.79707 1.75613,-11.36682c1.67015,-3.68966 5.7177,-7.27957 9.01803,-9.01841c6.03439,-3.17933 19.99875,-6.28276 24.89251,-6.28276c5.98256,0 19.16318,-0.23774 27.04539,3.70772c2.74676,1.3749 6.21429,4.68682 7.394,8.34707c2.06788,6.41592 0.56061,13.90206 0.56061,13.90206" data-paper-data="{&quot;index&quot;:null}" fill="none" stroke="#000000" stroke-width="5" stroke-linecap="round"/><path d="M249.31278,145.81158c0,9.66499 -4.27875,17.5 -9.55686,17.5c-5.27811,0 -9.55686,-7.83501 -9.55686,-17.5c0,-9.66499 4.27875,-17.5 9.55686,-17.5c5.27811,0 9.55686,7.83501 9.55686,17.5z" fill="url(#color-10)" stroke="none" stroke-width="0" stroke-linecap="butt"/><path d="M273.5324,145.81158c0,9.66499 -4.27875,17.5 -9.55686,17.5c-5.27811,0 -9.55686,-7.83501 -9.55686,-17.5c0,-9.66499 4.27875,-17.5 9.55686,-17.5c5.27811,0 9.55686,7.83501 9.55686,17.5z" fill="url(#color-11)" stroke="none" stroke-width="0" stroke-linecap="butt"/></g></g></svg>