<svg version="1.1" xmlns="http://www.w3.org/2000/svg" xmlns:xlink="http://www.w3.org/1999/xlink" width="1023" height="338.44746" viewBox="0,0,1023,338.44746"><defs><linearGradient x1="139.5" y1="169" x2="139.5" y2="433.44746" gradientUnits="userSpaceOnUse" id="color-1"><stop offset="0" stop-color="#3cff00"/><stop offset="1" stop-color="#008d08"/></linearGradient><linearGradient x1="401.5" y1="196" x2="401.5" y2="460.44746" gradientUnits="userSpaceOnUse" id="color-2"><stop offset="0" stop-color="#3cff00"/><stop offset="1" stop-color="#008d08"/></linearGradient><linearGradient x1="492.5" y1="241" x2="492.5" y2="505.44746" gradientUnits="userSpaceOnUse" id="color-3"><stop offset="0" stop-color="#3cff00"/><stop offset="1" stop-color="#008d08"/></linearGradient><linearGradient x1="163.5" y1="243" x2="163.5" y2="507.44746" gradientUnits="userSpaceOnUse" id="color-4"><stop offset="0" stop-color="#3cff00"/><stop offset="1" stop-color="#008d08"/></linearGradient></defs><g transform="translate(195.5,-169)"><g data-paper-data="{&quot;isPaintingLayer&quot;:true}" fill-rule="nonzero" stroke="none" stroke-width="0" stroke-linecap="butt" stroke-linejoin="miter" stroke-miterlimit="10" stroke-dasharray="" stroke-dashoffset="0" style="mix-blend-mode: normal"><path d="M-195.5,301.22373c0,-73.02515 149.98461,-132.22373 335,-132.22373c185.01539,0 335,59.19858 335,132.22373c0,73.02515 -149.98461,132.22373 -335,132.22373c-185.01539,0 -335,-59.19858 -335,-132.22373z" fill="url(#color-1)"/><path d="M66.5,328.22373c0,-73.02515 149.98461,-132.22373 335,-132.22373c185.01539,0 335,59.19858 335,132.22373c0,73.02515 -149.98461,132.22373 -335,132.22373c-185.01539,0 -335,-59.19858 -335,-132.22373z" fill="url(#color-2)"/><path d="M157.5,373.22373c0,-73.02515 149.98461,-132.22373 335,-132.22373c185.01539,0 335,59.19858 335,132.22373c0,73.02515 -149.98461,132.22373 -335,132.22373c-185.01539,0 -335,-59.19858 -335,-132.22373z" fill="url(#color-3)"/><path d="M-171.5,375.22373c0,-73.02515 149.98461,-132.22373 335,-132.22373c185.01539,0 335,59.19858 335,132.22373c0,73.02515 -149.98461,132.22373 -335,132.22373c-185.01539,0 -335,-59.19858 -335,-132.22373z" fill="url(#color-4)"/></g></g></svg>