<svg version="1.1" xmlns="http://www.w3.org/2000/svg" xmlns:xlink="http://www.w3.org/1999/xlink" width="640.5045" height="412" viewBox="0,0,640.5045,412"><defs><linearGradient x1="320.18168" y1="-38" x2="320.18168" y2="374" gradientUnits="userSpaceOnUse" id="color-1"><stop offset="0" stop-color="#00bbff"/><stop offset="1" stop-color="#00538c"/></linearGradient><linearGradient x1="100.46789" y1="-9.04566" x2="100.46789" y2="83" gradientUnits="userSpaceOnUse" id="color-2"><stop offset="0" stop-color="#ffffff"/><stop offset="1" stop-color="#b7cff0"/></linearGradient><linearGradient x1="155.71028" y1="1.95434" x2="155.71028" y2="90" gradientUnits="userSpaceOnUse" id="color-3"><stop offset="0" stop-color="#ffffff"/><stop offset="1" stop-color="#b7cff0"/></linearGradient><linearGradient x1="127.71028" y1="-29.04566" x2="127.71028" y2="59" gradientUnits="userSpaceOnUse" id="color-4"><stop offset="0" stop-color="#ffffff"/><stop offset="1" stop-color="#b7cff0"/></linearGradient><linearGradient x1="287.46789" y1="30.95434" x2="287.46789" y2="123" gradientUnits="userSpaceOnUse" id="color-5"><stop offset="0" stop-color="#ffffff"/><stop offset="1" stop-color="#b7cff0"/></linearGradient><linearGradient x1="342.71028" y1="41.95434" x2="342.71028" y2="130" gradientUnits="userSpaceOnUse" id="color-6"><stop offset="0" stop-color="#ffffff"/><stop offset="1" stop-color="#b7cff0"/></linearGradient><linearGradient x1="314.71028" y1="10.95434" x2="314.71028" y2="99" gradientUnits="userSpaceOnUse" id="color-7"><stop offset="0" stop-color="#ffffff"/><stop offset="1" stop-color="#b7cff0"/></linearGradient><linearGradient x1="464.46789" y1="-11.04566" x2="464.46789" y2="81" gradientUnits="userSpaceOnUse" id="color-8"><stop offset="0" stop-color="#ffffff"/><stop offset="1" stop-color="#b7cff0"/></linearGradient><linearGradient x1="519.71028" y1="-0.04566" x2="519.71028" y2="88" gradientUnits="userSpaceOnUse" id="color-9"><stop offset="0" stop-color="#ffffff"/><stop offset="1" stop-color="#b7cff0"/></linearGradient><linearGradient x1="491.71028" y1="-31.04566" x2="491.71028" y2="57" gradientUnits="userSpaceOnUse" id="color-10"><stop offset="0" stop-color="#ffffff"/><stop offset="1" stop-color="#b7cff0"/></linearGradient></defs><g transform="translate(0.07057,38)"><g data-paper-data="{&quot;isPaintingLayer&quot;:true}" fill-rule="nonzero" stroke="none" stroke-width="0" stroke-linecap="butt" stroke-linejoin="miter" stroke-miterlimit="10" stroke-dasharray="" stroke-dashoffset="0" style="mix-blend-mode: normal"><path d="M-0.07057,374v-412h640.5045v412z" fill="url(#color-1)"/><g data-paper-data="{&quot;index&quot;:null}"><path d="M151.43578,36.97717c0,25.41771 -22.8191,46.02283 -50.96789,46.02283c-28.14879,0 -50.96789,-20.60512 -50.96789,-46.02283c0,-25.41771 22.8191,-46.02283 50.96789,-46.02283c28.14879,0 50.96789,20.60512 50.96789,46.02283z" fill="url(#color-2)"/><path d="M207.92057,45.97717c0,24.31314 -23.37535,44.02283 -52.21029,44.02283c-28.83494,0 -52.21028,-19.70969 -52.21028,-44.02283c0,-24.31314 23.37534,-44.02283 52.21028,-44.02283c28.83494,0 52.21029,19.70969 52.21029,44.02283z" fill="url(#color-3)"/><path d="M179.92057,14.97717c0,24.31314 -23.37535,44.02283 -52.21029,44.02283c-28.83494,0 -52.21028,-19.70969 -52.21028,-44.02283c0,-24.31314 23.37534,-44.02283 52.21028,-44.02283c28.83494,0 52.21029,19.70969 52.21029,44.02283z" fill="url(#color-4)"/></g><g><path d="M338.43578,76.97717c0,25.41771 -22.8191,46.02283 -50.96789,46.02283c-28.14879,0 -50.96789,-20.60512 -50.96789,-46.02283c0,-25.41771 22.8191,-46.02283 50.96789,-46.02283c28.14879,0 50.96789,20.60512 50.96789,46.02283z" fill="url(#color-5)"/><path d="M394.92057,85.97717c0,24.31314 -23.37534,44.02283 -52.21028,44.02283c-28.83494,0 -52.21028,-19.70969 -52.21028,-44.02283c0,-24.31314 23.37534,-44.02283 52.21028,-44.02283c28.83494,0 52.21029,19.70969 52.21029,44.02283z" fill="url(#color-6)"/><path d="M366.92057,54.97717c0,24.31314 -23.37534,44.02283 -52.21028,44.02283c-28.83494,0 -52.21028,-19.70969 -52.21028,-44.02283c0,-24.31314 23.37534,-44.02283 52.21028,-44.02283c28.83494,0 52.21029,19.70969 52.21029,44.02283z" fill="url(#color-7)"/></g><g><path d="M515.43578,34.97717c0,25.41771 -22.8191,46.02283 -50.96789,46.02283c-28.14879,0 -50.96789,-20.60512 -50.96789,-46.02283c0,-25.41771 22.8191,-46.02283 50.96789,-46.02283c28.14879,0 50.96789,20.60512 50.96789,46.02283z" fill="url(#color-8)"/><path d="M571.92057,43.97717c0,24.31314 -23.37534,44.02283 -52.21028,44.02283c-28.83494,0 -52.21028,-19.70969 -52.21028,-44.02283c0,-24.31314 23.37534,-44.02283 52.21028,-44.02283c28.83494,0 52.21029,19.70969 52.21029,44.02283z" fill="url(#color-9)"/><path d="M543.92057,12.97717c0,24.31314 -23.37534,44.02283 -52.21028,44.02283c-28.83494,0 -52.21028,-19.70969 -52.21028,-44.02283c0,-24.31314 23.37534,-44.02283 52.21028,-44.02283c28.83494,0 52.21029,19.70969 52.21029,44.02283z" fill="url(#color-10)"/></g></g></g></svg>