<svg version="1.1" xmlns="http://www.w3.org/2000/svg" xmlns:xlink="http://www.w3.org/1999/xlink" width="650.19893" height="412" viewBox="0,0,650.19893,412"><defs><linearGradient x1="315.6678" y1="-38.16667" x2="315.6678" y2="373.83333" gradientUnits="userSpaceOnUse" id="color-1"><stop offset="0" stop-color="#00bbff"/><stop offset="1" stop-color="#00538c"/></linearGradient><linearGradient x1="100.46789" y1="-9.04566" x2="100.46789" y2="83" gradientUnits="userSpaceOnUse" id="color-2"><stop offset="0" stop-color="#ffffff"/><stop offset="1" stop-color="#b7cff0"/></linearGradient><linearGradient x1="155.71028" y1="1.95434" x2="155.71028" y2="90" gradientUnits="userSpaceOnUse" id="color-3"><stop offset="0" stop-color="#ffffff"/><stop offset="1" stop-color="#b7cff0"/></linearGradient><linearGradient x1="127.71028" y1="-29.04566" x2="127.71028" y2="59" gradientUnits="userSpaceOnUse" id="color-4"><stop offset="0" stop-color="#ffffff"/><stop offset="1" stop-color="#b7cff0"/></linearGradient><linearGradient x1="287.46789" y1="30.95434" x2="287.46789" y2="123" gradientUnits="userSpaceOnUse" id="color-5"><stop offset="0" stop-color="#ffffff"/><stop offset="1" stop-color="#b7cff0"/></linearGradient><linearGradient x1="342.71028" y1="41.95434" x2="342.71028" y2="130" gradientUnits="userSpaceOnUse" id="color-6"><stop offset="0" stop-color="#ffffff"/><stop offset="1" stop-color="#b7cff0"/></linearGradient><linearGradient x1="314.71028" y1="10.95434" x2="314.71028" y2="99" gradientUnits="userSpaceOnUse" id="color-7"><stop offset="0" stop-color="#ffffff"/><stop offset="1" stop-color="#b7cff0"/></linearGradient><linearGradient x1="464.46789" y1="-11.04566" x2="464.46789" y2="81" gradientUnits="userSpaceOnUse" id="color-8"><stop offset="0" stop-color="#ffffff"/><stop offset="1" stop-color="#b7cff0"/></linearGradient><linearGradient x1="519.71028" y1="-0.04566" x2="519.71028" y2="88" gradientUnits="userSpaceOnUse" id="color-9"><stop offset="0" stop-color="#ffffff"/><stop offset="1" stop-color="#b7cff0"/></linearGradient><linearGradient x1="491.71028" y1="-31.04566" x2="491.71028" y2="57" gradientUnits="userSpaceOnUse" id="color-10"><stop offset="0" stop-color="#ffffff"/><stop offset="1" stop-color="#b7cff0"/></linearGradient></defs><g transform="translate(9.43166,38.16667)"><g data-paper-data="{&quot;isPaintingLayer&quot;:true}" fill-rule="nonzero" stroke-linejoin="miter" stroke-miterlimit="10" stroke-dasharray="" stroke-dashoffset="0" style="mix-blend-mode: normal"><path d="M-9.43166,373.83333v-412h650.19893v412z" fill="url(#color-1)" stroke="none" stroke-width="0" stroke-linecap="butt"/><g data-paper-data="{&quot;index&quot;:null}" stroke="none" stroke-width="0" stroke-linecap="butt"><path d="M151.43578,36.97717c0,25.41771 -22.8191,46.02283 -50.96789,46.02283c-28.14879,0 -50.96789,-20.60512 -50.96789,-46.02283c0,-25.41771 22.8191,-46.02283 50.96789,-46.02283c28.14879,0 50.96789,20.60512 50.96789,46.02283z" fill="url(#color-2)"/><path d="M207.92057,45.97717c0,24.31314 -23.37535,44.02283 -52.21029,44.02283c-28.83494,0 -52.21028,-19.70969 -52.21028,-44.02283c0,-24.31314 23.37534,-44.02283 52.21028,-44.02283c28.83494,0 52.21029,19.70969 52.21029,44.02283z" fill="url(#color-3)"/><path d="M179.92057,14.97717c0,24.31314 -23.37535,44.02283 -52.21029,44.02283c-28.83494,0 -52.21028,-19.70969 -52.21028,-44.02283c0,-24.31314 23.37534,-44.02283 52.21028,-44.02283c28.83494,0 52.21029,19.70969 52.21029,44.02283z" fill="url(#color-4)"/></g><g stroke="none" stroke-width="0" stroke-linecap="butt"><path d="M338.43578,76.97717c0,25.41771 -22.8191,46.02283 -50.96789,46.02283c-28.14879,0 -50.96789,-20.60512 -50.96789,-46.02283c0,-25.41771 22.8191,-46.02283 50.96789,-46.02283c28.14879,0 50.96789,20.60512 50.96789,46.02283z" fill="url(#color-5)"/><path d="M394.92057,85.97717c0,24.31314 -23.37534,44.02283 -52.21028,44.02283c-28.83494,0 -52.21028,-19.70969 -52.21028,-44.02283c0,-24.31314 23.37534,-44.02283 52.21028,-44.02283c28.83494,0 52.21029,19.70969 52.21029,44.02283z" fill="url(#color-6)"/><path d="M366.92057,54.97717c0,24.31314 -23.37534,44.02283 -52.21028,44.02283c-28.83494,0 -52.21028,-19.70969 -52.21028,-44.02283c0,-24.31314 23.37534,-44.02283 52.21028,-44.02283c28.83494,0 52.21029,19.70969 52.21029,44.02283z" fill="url(#color-7)"/></g><g stroke="none" stroke-width="0" stroke-linecap="butt"><path d="M515.43578,34.97717c0,25.41771 -22.8191,46.02283 -50.96789,46.02283c-28.14879,0 -50.96789,-20.60512 -50.96789,-46.02283c0,-25.41771 22.8191,-46.02283 50.96789,-46.02283c28.14879,0 50.96789,20.60512 50.96789,46.02283z" fill="url(#color-8)"/><path d="M571.92057,43.97717c0,24.31314 -23.37534,44.02283 -52.21028,44.02283c-28.83494,0 -52.21028,-19.70969 -52.21028,-44.02283c0,-24.31314 23.37534,-44.02283 52.21028,-44.02283c28.83494,0 52.21029,19.70969 52.21029,44.02283z" fill="url(#color-9)"/><path d="M543.92057,12.97717c0,24.31314 -23.37534,44.02283 -52.21028,44.02283c-28.83494,0 -52.21028,-19.70969 -52.21028,-44.02283c0,-24.31314 23.37534,-44.02283 52.21028,-44.02283c28.83494,0 52.21029,19.70969 52.21029,44.02283z" fill="url(#color-10)"/></g><path d="M81.30419,38.17521l-3.81465,10.76278l-11.44765,-3.72997l3.52377,-10.86588l-9.99322,-3.21447l25.60533,-22.35772l5.74407,31.83176z" data-paper-data="{&quot;index&quot;:null}" fill="#ffffff" stroke="#000000" stroke-width="0" stroke-linecap="round"/><path d="M81.30419,38.1752l-3.81466,10.76278l-11.44765,-3.72997l3.52377,-10.86588l-9.99322,-3.21447l25.60533,-22.35771l5.74408,31.83176z" data-paper-data="{&quot;index&quot;:null}" fill="none" stroke="#000000" stroke-width="5" stroke-linecap="round"/><path d="M87.31683,37.07025l-8.14747,-2.22204l-3.33306,10.55468l-6.29577,-1.8517l3.14789,-11.48053l-8.33264,-2.22204l18.88732,-16.10977z" fill="none" stroke="#ffadad" stroke-width="2" stroke-linecap="round"/><text transform="translate(62.90567,98.02381) rotate(-10.4795) scale(1.11778,1.11778)" font-size="40" xml:space="preserve" data-paper-data="{&quot;index&quot;:null}" fill="#000000" fill-rule="nonzero" stroke="none" stroke-width="1" stroke-linecap="butt" stroke-linejoin="miter" stroke-miterlimit="10" stroke-dasharray="" stroke-dashoffset="0" font-family="Pixel" font-weight="normal" text-anchor="start" style="mix-blend-mode: normal"><tspan x="0" dy="0">1</tspan></text><text transform="translate(70.33842,83.128) rotate(16.77727) scale(0.96667,0.96667)" font-size="40" xml:space="preserve" fill="#000000" fill-rule="nonzero" stroke="none" stroke-width="1" stroke-linecap="butt" stroke-linejoin="miter" stroke-miterlimit="10" stroke-dasharray="" stroke-dashoffset="0" font-family="Pixel" font-weight="normal" text-anchor="start" style="mix-blend-mode: normal"><tspan x="0" dy="0">+</tspan></text></g></g></svg>