<svg version="1.1" xmlns="http://www.w3.org/2000/svg" xmlns:xlink="http://www.w3.org/1999/xlink" width="156.5" height="90.00001" viewBox="0,0,156.5,90.00001"><defs><linearGradient x1="318.3616" y1="142.2132" x2="318.3616" y2="230.11097" gradientUnits="userSpaceOnUse" id="color-1"><stop offset="0" stop-color="#00bbff"/><stop offset="1" stop-color="#00538c"/></linearGradient><linearGradient x1="271.48696" y1="148.39044" x2="271.48696" y2="168.02784" gradientUnits="userSpaceOnUse" id="color-2"><stop offset="0" stop-color="#ffffff"/><stop offset="1" stop-color="#b7cff0"/></linearGradient><linearGradient x1="283.2726" y1="150.73722" x2="283.2726" y2="169.52125" gradientUnits="userSpaceOnUse" id="color-3"><stop offset="0" stop-color="#ffffff"/><stop offset="1" stop-color="#b7cff0"/></linearGradient><linearGradient x1="277.29897" y1="144.12356" x2="277.29897" y2="162.90758" gradientUnits="userSpaceOnUse" id="color-4"><stop offset="0" stop-color="#ffffff"/><stop offset="1" stop-color="#b7cff0"/></linearGradient><linearGradient x1="311.38231" y1="156.9242" x2="311.38231" y2="176.5616" gradientUnits="userSpaceOnUse" id="color-5"><stop offset="0" stop-color="#ffffff"/><stop offset="1" stop-color="#b7cff0"/></linearGradient><linearGradient x1="323.16795" y1="159.27099" x2="323.16795" y2="178.05501" gradientUnits="userSpaceOnUse" id="color-6"><stop offset="0" stop-color="#ffffff"/><stop offset="1" stop-color="#b7cff0"/></linearGradient><linearGradient x1="317.19431" y1="152.65732" x2="317.19431" y2="171.44134" gradientUnits="userSpaceOnUse" id="color-7"><stop offset="0" stop-color="#ffffff"/><stop offset="1" stop-color="#b7cff0"/></linearGradient><linearGradient x1="349.14421" y1="147.96375" x2="349.14421" y2="167.60115" gradientUnits="userSpaceOnUse" id="color-8"><stop offset="0" stop-color="#ffffff"/><stop offset="1" stop-color="#b7cff0"/></linearGradient><linearGradient x1="360.92985" y1="150.31054" x2="360.92985" y2="169.09456" gradientUnits="userSpaceOnUse" id="color-9"><stop offset="0" stop-color="#ffffff"/><stop offset="1" stop-color="#b7cff0"/></linearGradient><linearGradient x1="354.95622" y1="143.69687" x2="354.95622" y2="162.48089" gradientUnits="userSpaceOnUse" id="color-10"><stop offset="0" stop-color="#ffffff"/><stop offset="1" stop-color="#b7cff0"/></linearGradient><linearGradient x1="296.88176" y1="186.37543" x2="296.88176" y2="242.79373" gradientUnits="userSpaceOnUse" id="color-11"><stop offset="0" stop-color="#3cff00"/><stop offset="1" stop-color="#008d08"/></linearGradient><linearGradient x1="352.77791" y1="192.13572" x2="352.77791" y2="248.55402" gradientUnits="userSpaceOnUse" id="color-12"><stop offset="0" stop-color="#3cff00"/><stop offset="1" stop-color="#008d08"/></linearGradient><linearGradient x1="424.05662" y1="232.87586" x2="424.05662" y2="289.29416" gradientUnits="userSpaceOnUse" id="color-13"><stop offset="0" stop-color="#3cff00"/><stop offset="1" stop-color="#008d08"/></linearGradient><linearGradient x1="372.19223" y1="201.7362" x2="372.19223" y2="258.15451" gradientUnits="userSpaceOnUse" id="color-14"><stop offset="0" stop-color="#3cff00"/><stop offset="1" stop-color="#008d08"/></linearGradient><linearGradient x1="443.47094" y1="242.47634" x2="443.47094" y2="298.89465" gradientUnits="userSpaceOnUse" id="color-15"><stop offset="0" stop-color="#3cff00"/><stop offset="1" stop-color="#008d08"/></linearGradient><linearGradient x1="302.00202" y1="202.16289" x2="302.00202" y2="258.58119" gradientUnits="userSpaceOnUse" id="color-16"><stop offset="0" stop-color="#3cff00"/><stop offset="1" stop-color="#008d08"/></linearGradient><linearGradient x1="373.28073" y1="242.90303" x2="373.28073" y2="299.32133" gradientUnits="userSpaceOnUse" id="color-17"><stop offset="0" stop-color="#3cff00"/><stop offset="1" stop-color="#008d08"/></linearGradient><linearGradient x1="396.14031" y1="296.95334" x2="396.14031" y2="384.85111" gradientUnits="userSpaceOnUse" id="color-18"><stop offset="0" stop-color="#00bbff"/><stop offset="1" stop-color="#00538c"/></linearGradient><linearGradient x1="396.14031" y1="296.95334" x2="396.14031" y2="384.85111" gradientUnits="userSpaceOnUse" id="color-19"><stop offset="0" stop-color="#00bbff"/><stop offset="1" stop-color="#00538c"/></linearGradient><linearGradient x1="396.14031" y1="296.95334" x2="396.14031" y2="384.85111" gradientUnits="userSpaceOnUse" id="color-20"><stop offset="0" stop-color="#00bbff"/><stop offset="1" stop-color="#00538c"/></linearGradient><linearGradient x1="396.14031" y1="296.95334" x2="396.14031" y2="384.85111" gradientUnits="userSpaceOnUse" id="color-21"><stop offset="0" stop-color="#00bbff"/><stop offset="1" stop-color="#00538c"/></linearGradient><linearGradient x1="350.01567" y1="302.38058" x2="350.01567" y2="322.01798" gradientUnits="userSpaceOnUse" id="color-22"><stop offset="0" stop-color="#ffffff"/><stop offset="1" stop-color="#b7cff0"/></linearGradient><linearGradient x1="361.80131" y1="304.72736" x2="361.80131" y2="323.51139" gradientUnits="userSpaceOnUse" id="color-23"><stop offset="0" stop-color="#ffffff"/><stop offset="1" stop-color="#b7cff0"/></linearGradient><linearGradient x1="355.82768" y1="298.1137" x2="355.82768" y2="316.89772" gradientUnits="userSpaceOnUse" id="color-24"><stop offset="0" stop-color="#ffffff"/><stop offset="1" stop-color="#b7cff0"/></linearGradient><linearGradient x1="389.91102" y1="310.91434" x2="389.91102" y2="330.55174" gradientUnits="userSpaceOnUse" id="color-25"><stop offset="0" stop-color="#ffffff"/><stop offset="1" stop-color="#b7cff0"/></linearGradient><linearGradient x1="401.69666" y1="313.26113" x2="401.69666" y2="332.04515" gradientUnits="userSpaceOnUse" id="color-26"><stop offset="0" stop-color="#ffffff"/><stop offset="1" stop-color="#b7cff0"/></linearGradient><linearGradient x1="395.72302" y1="306.64746" x2="395.72302" y2="325.43148" gradientUnits="userSpaceOnUse" id="color-27"><stop offset="0" stop-color="#ffffff"/><stop offset="1" stop-color="#b7cff0"/></linearGradient><linearGradient x1="426.92292" y1="302.70389" x2="426.92292" y2="322.34129" gradientUnits="userSpaceOnUse" id="color-28"><stop offset="0" stop-color="#ffffff"/><stop offset="1" stop-color="#b7cff0"/></linearGradient><linearGradient x1="438.70856" y1="305.05068" x2="438.70856" y2="323.8347" gradientUnits="userSpaceOnUse" id="color-29"><stop offset="0" stop-color="#ffffff"/><stop offset="1" stop-color="#b7cff0"/></linearGradient><linearGradient x1="432.73493" y1="298.43701" x2="432.73493" y2="317.22103" gradientUnits="userSpaceOnUse" id="color-30"><stop offset="0" stop-color="#ffffff"/><stop offset="1" stop-color="#b7cff0"/></linearGradient><linearGradient x1="374.66047" y1="341.11557" x2="374.66047" y2="397.53387" gradientUnits="userSpaceOnUse" id="color-31"><stop offset="0" stop-color="#3cff00"/><stop offset="1" stop-color="#008d08"/></linearGradient><linearGradient x1="374.66047" y1="341.11557" x2="374.66047" y2="397.53387" gradientUnits="userSpaceOnUse" id="color-32"><stop offset="0" stop-color="#3cff00"/><stop offset="1" stop-color="#008d08"/></linearGradient><linearGradient x1="430.55662" y1="346.87586" x2="430.55662" y2="403.29416" gradientUnits="userSpaceOnUse" id="color-33"><stop offset="0" stop-color="#3cff00"/><stop offset="1" stop-color="#008d08"/></linearGradient><linearGradient x1="430.55662" y1="346.87586" x2="430.55662" y2="403.29416" gradientUnits="userSpaceOnUse" id="color-34"><stop offset="0" stop-color="#3cff00"/><stop offset="1" stop-color="#008d08"/></linearGradient><linearGradient x1="449.97094" y1="356.47634" x2="449.97094" y2="412.89465" gradientUnits="userSpaceOnUse" id="color-35"><stop offset="0" stop-color="#3cff00"/><stop offset="1" stop-color="#008d08"/></linearGradient><linearGradient x1="449.97094" y1="356.47634" x2="449.97094" y2="412.89465" gradientUnits="userSpaceOnUse" id="color-36"><stop offset="0" stop-color="#3cff00"/><stop offset="1" stop-color="#008d08"/></linearGradient><linearGradient x1="379.78073" y1="356.90303" x2="379.78073" y2="413.32133" gradientUnits="userSpaceOnUse" id="color-37"><stop offset="0" stop-color="#3cff00"/><stop offset="1" stop-color="#008d08"/></linearGradient></defs><g transform="translate(-239.16572,-132.44388)"><g data-paper-data="{&quot;isPaintingLayer&quot;:true}" fill-rule="nonzero" stroke-linecap="butt" stroke-linejoin="miter" stroke-miterlimit="10" stroke-dasharray="" stroke-dashoffset="0" style="mix-blend-mode: normal"><path d="M250.03768,142.2132h136.64785v67.83806c-0.63078,1.12303 -1.24949,2.17812 -1.87107,3.11669c-1.03363,1.56076 0.29885,3.28146 -3.07191,4.77595c-1.30231,0.5774 -2.62099,-1.13186 -3.98313,-1.549c-3.11791,-0.95482 -6.98242,-1.04307 -10.12008,-0.16679c-4.71078,1.31562 -10.37984,4.6624 -15.23046,4.82017c-8.60063,0.27974 -17.23179,0.45909 -25.81507,-0.15449c-4.79183,-0.34255 -9.70308,-3.77492 -14.79219,-3.84551c-6.77713,-0.094 -13.55646,-0.11066 -20.33333,0c-0.44517,0.00727 -2.85568,0.92395 -3.20999,0.46586c-0.65675,-0.84911 -3.68259,-1.46028 -5.12334,-1.46586c-9.36891,-0.03629 -17.90304,0.96175 -27.03014,2.99397c-0.91069,0.20277 -0.61877,-1.7605 -0.91381,-2.64562c-0.48971,-1.46915 -1.90784,-3.76372 -3.00288,-4.85876c-0.98291,-0.98291 -1.66384,-1.95681 -2.15045,-2.92845z" fill="url(#color-1)" stroke="none" stroke-width="0"/><g data-paper-data="{&quot;index&quot;:null}" stroke="none" stroke-width="0"><path d="M282.36066,158.20914c0,5.42272 -4.86832,9.8187 -10.8737,9.8187c-6.00538,0 -10.87369,-4.39598 -10.87369,-9.8187c0,-5.42272 4.86831,-9.8187 10.87369,-9.8187c6.00538,0 10.8737,4.39598 10.8737,9.8187z" fill="url(#color-2)"/><path d="M294.41136,160.12924c0,5.18706 -4.98699,9.39201 -11.13876,9.39201c-6.15177,0 -11.13876,-4.20495 -11.13876,-9.39201c0,-5.18706 4.98699,-9.39201 11.13876,-9.39201c6.15177,0 11.13876,4.20495 11.13876,9.39201z" fill="url(#color-3)"/><path d="M288.43772,153.51557c0,5.18706 -4.98699,9.39201 -11.13876,9.39201c-6.15177,0 -11.13876,-4.20495 -11.13876,-9.39201c0,-5.18706 4.98699,-9.39201 11.13876,-9.39201c6.15177,0 11.13876,4.20495 11.13876,9.39201z" fill="url(#color-4)"/></g><g stroke="none" stroke-width="0"><path d="M322.25601,166.7429c0,5.42272 -4.86832,9.8187 -10.8737,9.8187c-6.00538,0 -10.87369,-4.39598 -10.87369,-9.8187c0,-5.42272 4.86831,-9.8187 10.87369,-9.8187c6.00538,0 10.8737,4.39598 10.8737,9.8187z" fill="url(#color-5)"/><path d="M334.3067,168.663c0,5.18706 -4.98699,9.39202 -11.13876,9.39202c-6.15177,0 -11.13876,-4.20495 -11.13876,-9.39202c0,-5.18706 4.98699,-9.39201 11.13876,-9.39201c6.15177,0 11.13876,4.20495 11.13876,9.39201z" fill="url(#color-6)"/><path d="M328.33307,162.04933c0,5.18706 -4.98699,9.39201 -11.13876,9.39201c-6.15177,0 -11.13876,-4.20495 -11.13876,-9.39201c0,-5.18706 4.98699,-9.39201 11.13876,-9.39201c6.15177,0 11.13876,4.20495 11.13876,9.39201z" fill="url(#color-7)"/></g><g stroke="none" stroke-width="0"><path d="M360.01791,157.78245c0,5.42272 -4.86832,9.81869 -10.8737,9.81869c-6.00538,0 -10.87369,-4.39597 -10.87369,-9.81869c0,-5.42272 4.86831,-9.8187 10.87369,-9.8187c6.00538,0 10.8737,4.39598 10.8737,9.8187z" fill="url(#color-8)"/><path d="M372.06861,159.70255c0,5.18706 -4.98699,9.39201 -11.13876,9.39201c-6.15177,0 -11.13876,-4.20495 -11.13876,-9.39201c0,-5.18706 4.98699,-9.39201 11.13876,-9.39201c6.15177,0 11.13876,4.20495 11.13876,9.39201z" fill="url(#color-9)"/><path d="M366.09497,153.08888c0,5.18706 -4.98699,9.39201 -11.13876,9.39201c-6.15177,0 -11.13876,-4.20495 -11.13876,-9.39201c0,-5.18706 4.98699,-9.39202 11.13876,-9.39202c6.15177,0 11.13876,4.20495 11.13876,9.39202z" fill="url(#color-10)"/></g><path d="M296.88176,186.37543c39.47194,0 71.47027,12.62967 71.47027,28.20916c0,0.4985 -0.03276,0.99399 -0.09748,1.48613c-0.20783,0.04848 -0.41303,0.10094 -0.61521,0.15741c-4.71078,1.31562 -10.37984,4.6624 -15.23046,4.82017c-8.60063,0.27974 -17.23179,0.45909 -25.81507,-0.15449c-4.79183,-0.34255 -9.70308,-3.77492 -14.79219,-3.84551c-6.77713,-0.094 -13.55646,-0.11066 -20.33333,0c-0.44517,0.00727 -2.85568,0.92395 -3.20999,0.46586c-0.65675,-0.84911 -3.68259,-1.46028 -5.12334,-1.46586c-9.36891,-0.03629 -17.90304,0.96175 -27.03014,2.99397c-0.91069,0.20277 -0.61877,-1.7605 -0.91381,-2.64562c-0.48971,-1.46915 -1.90784,-3.76372 -3.00288,-4.85876c-4.78386,-4.78385 -2.41453,-9.35432 -5.30317,-14.48959c-0.21794,-0.38744 -0.48034,-0.7307 -0.77838,-1.03857c-0.25234,-0.3326 -0.52501,-0.64892 -0.81617,-0.94711c13.00794,-5.35398 31.31343,-8.68719 51.59135,-8.68719z" fill="url(#color-11)" stroke="none" stroke-width="0"/><path d="M352.77791,192.13572c15.66542,0 30.15367,1.9893 41.93168,5.36278c-4.21708,4.51998 -7.02552,11.3364 -9.89513,15.66946c-1.03363,1.56076 0.29885,3.28146 -3.07191,4.77595c-1.30231,0.5774 -2.62099,-1.13186 -3.98313,-1.549c-3.11791,-0.95482 -6.98242,-1.04307 -10.12008,-0.16679c-4.71078,1.31562 -10.37984,4.6624 -15.23046,4.82017c-8.60063,0.27974 -17.23179,0.45909 -25.81507,-0.15449c-4.79183,-0.34255 -9.70308,-3.77492 -14.79219,-3.84551c-6.77713,-0.094 -13.55646,-0.11066 -20.33333,0c-0.44517,0.00727 -2.85568,0.92395 -3.20999,0.46586c-0.65675,-0.84911 -3.68259,-1.46028 -5.12334,-1.46586c-0.33559,-0.0013 -0.67011,-0.00128 -1.00362,0.00008c5.24244,-13.54031 34.87559,-23.91265 70.64657,-23.91265z" fill="url(#color-12)" stroke="none" stroke-width="0"/><path d="" fill="url(#color-13)" stroke="none" stroke-width="0"/><path d="M372.19223,201.7362c6.45328,0 12.7068,0.33758 18.65338,0.97044c-2.26623,3.65216 -4.13534,7.59869 -6.03115,10.46132c-1.03363,1.56076 0.29885,3.28146 -3.07191,4.77595c-1.30231,0.5774 -2.62099,-1.13186 -3.98313,-1.549c-3.11791,-0.95482 -6.98242,-1.04307 -10.12008,-0.16679c-4.71078,1.31562 -10.37984,4.6624 -15.23046,4.82017c-8.60063,0.27974 -17.23179,0.45909 -25.81507,-0.15449c-4.79183,-0.34255 -9.70308,-3.77492 -14.79219,-3.84551c-1.04665,-0.01452 -2.09337,-0.02719 -3.14011,-0.03784c11.88121,-9.07258 35.87104,-15.27425 63.53071,-15.27425z" fill="url(#color-14)" stroke="none" stroke-width="0"/><path d="" fill="url(#color-15)" stroke="none" stroke-width="0"/><path d="M302.00202,202.16289c27.30133,0 51.0273,6.04203 63.06286,14.9231c-4.11223,1.53994 -8.66161,3.83239 -12.65599,3.9623c-8.60063,0.27974 -17.23179,0.45909 -25.81507,-0.15449c-4.79183,-0.34255 -9.70308,-3.77492 -14.79219,-3.84551c-6.77713,-0.094 -13.55646,-0.11066 -20.33333,0c-0.44517,0.00727 -2.85568,0.92395 -3.20999,0.46586c-0.65675,-0.84911 -3.68259,-1.46028 -5.12334,-1.46586c-9.36891,-0.03629 -17.90304,0.96175 -27.03014,2.99397c-0.91069,0.20277 -0.61877,-1.7605 -0.91381,-2.64562c-0.48971,-1.46915 -1.90784,-3.76372 -3.00288,-4.85876c-0.3449,-0.3449 -0.65261,-0.68868 -0.9278,-1.03165c12.94941,-5.15247 30.90145,-8.34334 50.74168,-8.34334z" fill="url(#color-16)" stroke="none" stroke-width="0"/><path d="" fill="url(#color-17)" stroke="none" stroke-width="0"/><path d="M245.41572,202.35459c0,-14.70957 0,-37.07201 0,-46.13095c0,-7.58542 6.90913,-17.52976 13.88764,-17.52976c17.13594,0 90.51501,0 118.86892,0c6.98989,0 11.24344,6.96654 11.24344,12.91667c0,8.80449 0,34.23801 0,50.43651c0,8.27984 -5.54769,14.14683 -12.05243,14.14683c-27.28287,0 -98.2481,0 -116.17229,0c-7.78591,0 -15.77528,-5.7674 -15.77528,-13.83929z" fill="none" stroke="#000000" stroke-width="12.5"/><path d="" fill="url(#color-18)" stroke="none" stroke-width="0"/><path d="" fill="url(#color-19)" stroke="none" stroke-width="0"/><path d="" fill="url(#color-20)" stroke="none" stroke-width="0"/><path d="" fill="url(#color-21)" stroke="none" stroke-width="0"/><g data-paper-data="{&quot;index&quot;:null}" stroke="none" stroke-width="0"><path d="" fill="url(#color-22)"/><path d="" fill="url(#color-23)"/><path d="" fill="url(#color-24)"/></g><g stroke="none" stroke-width="0"><path d="" fill="url(#color-25)"/><path d="" fill="url(#color-26)"/><path d="" fill="url(#color-27)"/></g><g stroke="none" stroke-width="0"><path d="" fill="url(#color-28)"/><path d="" fill="url(#color-29)"/><path d="" fill="url(#color-30)"/></g><path d="" fill="url(#color-31)" stroke="none" stroke-width="0"/><path d="" fill="url(#color-32)" stroke="none" stroke-width="0"/><path d="" fill="url(#color-33)" stroke="none" stroke-width="0"/><path d="" fill="url(#color-34)" stroke="none" stroke-width="0"/><path d="" fill="url(#color-35)" stroke="none" stroke-width="0"/><path d="" fill="url(#color-36)" stroke="none" stroke-width="0"/><path d="" fill="url(#color-37)" stroke="none" stroke-width="0"/><text transform="translate(261.01132,166.02861) scale(0.5,0.5)" font-size="40" xml:space="preserve" fill="#ffffff" fill-rule="nonzero" stroke="#000000" stroke-width="10" stroke-linecap="butt" stroke-linejoin="miter" stroke-miterlimit="10" stroke-dasharray="" stroke-dashoffset="0" font-family="Sans Serif" font-weight="normal" text-anchor="start" style="mix-blend-mode: normal"><tspan x="0" dy="0">Maps</tspan></text><text transform="translate(262.51132,166.02861) scale(0.5,0.5)" font-size="40" xml:space="preserve" fill="#ffffff" fill-rule="nonzero" stroke="#000000" stroke-width="10" stroke-linecap="butt" stroke-linejoin="miter" stroke-miterlimit="10" stroke-dasharray="" stroke-dashoffset="0" font-family="Sans Serif" font-weight="normal" text-anchor="start" style="mix-blend-mode: normal"><tspan x="0" dy="0">Maps</tspan></text><text transform="translate(261.76132,166.02861) scale(0.5,0.5)" font-size="40" xml:space="preserve" fill="#ffffff" fill-rule="nonzero" stroke="#ffffff" stroke-width="2" stroke-linecap="butt" stroke-linejoin="miter" stroke-miterlimit="10" stroke-dasharray="" stroke-dashoffset="0" font-family="Sans Serif" font-weight="normal" text-anchor="start" style="mix-blend-mode: normal"><tspan x="0" dy="0">Maps</tspan></text><text transform="translate(263.26132,166.02861) scale(0.5,0.5)" font-size="40" xml:space="preserve" fill="#ffffff" fill-rule="nonzero" stroke="#ffffff" stroke-width="2" stroke-linecap="butt" stroke-linejoin="miter" stroke-miterlimit="10" stroke-dasharray="" stroke-dashoffset="0" font-family="Sans Serif" font-weight="normal" text-anchor="start" style="mix-blend-mode: normal"><tspan x="0" dy="0">Maps</tspan></text></g></g></svg>