<svg version="1.1" xmlns="http://www.w3.org/2000/svg" xmlns:xlink="http://www.w3.org/1999/xlink" width="447" height="253.85686" viewBox="0,0,447,253.85686"><g transform="translate(-96.5,-46.90481)"><g data-paper-data="{&quot;isPaintingLayer&quot;:true}" fill-rule="nonzero" stroke-linecap="butt" stroke-linejoin="miter" stroke-miterlimit="10" stroke-dasharray="" stroke-dashoffset="0" style="mix-blend-mode: normal"><path d="M97.5,269.93402c0,-48.69789 -1,-139.50363 -1,-169c0,-18.69416 22.77708,-40.69569 46.19443,-40.69569c58.10193,0 297.40511,-1 370,-1c12.56444,0 30.80557,18.69161 30.80557,34.69569c0,27.81867 0,118.41117 0,170c0,21.9416 -12.20073,35.82765 -36.80557,35.82765c-92.35341,0 -320.19662,1 -371,1c-19.94601,0 -38.19443,-11.13422 -38.19443,-30.82765z" fill-opacity="0.6" fill="#000000" stroke="none" stroke-width="0"/><g fill="#ffffff" font-family="Pixel" font-weight="normal" font-size="40" text-anchor="start"><text transform="translate(251.69443,120.93402) scale(1.41008,1.41008)" font-size="40" xml:space="preserve" fill="#ffffff" fill-rule="nonzero" stroke="#c5c5c5" stroke-width="0" stroke-linecap="butt" stroke-linejoin="miter" stroke-miterlimit="10" stroke-dasharray="" stroke-dashoffset="0" font-family="Pixel" font-weight="normal" text-anchor="start" style="mix-blend-mode: normal"><tspan x="0" dy="0">Shop!</tspan></text><text transform="translate(251.69443,120.93402) scale(1.41008,1.41008)" font-size="40" xml:space="preserve" fill="#ffffff" fill-rule="nonzero" stroke="#ffffff" stroke-width="5" stroke-linecap="butt" stroke-linejoin="miter" stroke-miterlimit="10" stroke-dasharray="" stroke-dashoffset="0" font-family="Pixel" font-weight="normal" text-anchor="start" style="mix-blend-mode: normal"><tspan x="0" dy="0">Shop!</tspan></text><text transform="translate(251.69443,120.93402) scale(1.41008,1.41008)" font-size="40" xml:space="preserve" fill="#ffffff" fill-rule="nonzero" stroke="#bbbbbb" stroke-width="2" stroke-linecap="butt" stroke-linejoin="miter" stroke-miterlimit="10" stroke-dasharray="" stroke-dashoffset="0" font-family="Pixel" font-weight="normal" text-anchor="start" style="mix-blend-mode: normal"><tspan x="0" dy="0">Shop!</tspan></text></g></g></g></svg>