<svg version="1.1" xmlns="http://www.w3.org/2000/svg" xmlns:xlink="http://www.w3.org/1999/xlink" width="156.5" height="90.00001" viewBox="0,0,156.5,90.00001"><defs><linearGradient x1="211.8616" y1="186.21321" x2="211.8616" y2="274.11098" gradientUnits="userSpaceOnUse" id="color-1"><stop offset="0" stop-color="#00bbff"/><stop offset="1" stop-color="#00538c"/></linearGradient><linearGradient x1="164.98696" y1="192.39045" x2="164.98696" y2="212.02785" gradientUnits="userSpaceOnUse" id="color-2"><stop offset="0" stop-color="#ffffff"/><stop offset="1" stop-color="#b7cff0"/></linearGradient><linearGradient x1="176.7726" y1="194.73723" x2="176.7726" y2="213.52126" gradientUnits="userSpaceOnUse" id="color-3"><stop offset="0" stop-color="#ffffff"/><stop offset="1" stop-color="#b7cff0"/></linearGradient><linearGradient x1="170.79897" y1="188.12357" x2="170.79897" y2="206.90759" gradientUnits="userSpaceOnUse" id="color-4"><stop offset="0" stop-color="#ffffff"/><stop offset="1" stop-color="#b7cff0"/></linearGradient><linearGradient x1="204.88231" y1="200.92421" x2="204.88231" y2="220.56161" gradientUnits="userSpaceOnUse" id="color-5"><stop offset="0" stop-color="#ffffff"/><stop offset="1" stop-color="#b7cff0"/></linearGradient><linearGradient x1="216.66795" y1="203.271" x2="216.66795" y2="222.05502" gradientUnits="userSpaceOnUse" id="color-6"><stop offset="0" stop-color="#ffffff"/><stop offset="1" stop-color="#b7cff0"/></linearGradient><linearGradient x1="210.69431" y1="196.65733" x2="210.69431" y2="215.44135" gradientUnits="userSpaceOnUse" id="color-7"><stop offset="0" stop-color="#ffffff"/><stop offset="1" stop-color="#b7cff0"/></linearGradient><linearGradient x1="242.64421" y1="191.96376" x2="242.64421" y2="211.60116" gradientUnits="userSpaceOnUse" id="color-8"><stop offset="0" stop-color="#ffffff"/><stop offset="1" stop-color="#b7cff0"/></linearGradient><linearGradient x1="254.42985" y1="194.31055" x2="254.42985" y2="213.09457" gradientUnits="userSpaceOnUse" id="color-9"><stop offset="0" stop-color="#ffffff"/><stop offset="1" stop-color="#b7cff0"/></linearGradient><linearGradient x1="248.45622" y1="187.69688" x2="248.45622" y2="206.4809" gradientUnits="userSpaceOnUse" id="color-10"><stop offset="0" stop-color="#ffffff"/><stop offset="1" stop-color="#b7cff0"/></linearGradient><linearGradient x1="190.38176" y1="230.37544" x2="190.38176" y2="286.79374" gradientUnits="userSpaceOnUse" id="color-11"><stop offset="0" stop-color="#3cff00"/><stop offset="1" stop-color="#008d08"/></linearGradient><linearGradient x1="246.27791" y1="236.13573" x2="246.27791" y2="292.55403" gradientUnits="userSpaceOnUse" id="color-12"><stop offset="0" stop-color="#3cff00"/><stop offset="1" stop-color="#008d08"/></linearGradient><linearGradient x1="424.05662" y1="232.87587" x2="424.05662" y2="289.29417" gradientUnits="userSpaceOnUse" id="color-13"><stop offset="0" stop-color="#3cff00"/><stop offset="1" stop-color="#008d08"/></linearGradient><linearGradient x1="265.69223" y1="245.73621" x2="265.69223" y2="302.15452" gradientUnits="userSpaceOnUse" id="color-14"><stop offset="0" stop-color="#3cff00"/><stop offset="1" stop-color="#008d08"/></linearGradient><linearGradient x1="443.47094" y1="242.47635" x2="443.47094" y2="298.89466" gradientUnits="userSpaceOnUse" id="color-15"><stop offset="0" stop-color="#3cff00"/><stop offset="1" stop-color="#008d08"/></linearGradient><linearGradient x1="195.50202" y1="246.1629" x2="195.50202" y2="302.58119" gradientUnits="userSpaceOnUse" id="color-16"><stop offset="0" stop-color="#3cff00"/><stop offset="1" stop-color="#008d08"/></linearGradient><linearGradient x1="373.28073" y1="242.90304" x2="373.28073" y2="299.32133" gradientUnits="userSpaceOnUse" id="color-17"><stop offset="0" stop-color="#3cff00"/><stop offset="1" stop-color="#008d08"/></linearGradient><linearGradient x1="396.14031" y1="296.95335" x2="396.14031" y2="384.85112" gradientUnits="userSpaceOnUse" id="color-18"><stop offset="0" stop-color="#00bbff"/><stop offset="1" stop-color="#00538c"/></linearGradient><linearGradient x1="396.14031" y1="296.95335" x2="396.14031" y2="384.85112" gradientUnits="userSpaceOnUse" id="color-19"><stop offset="0" stop-color="#00bbff"/><stop offset="1" stop-color="#00538c"/></linearGradient><linearGradient x1="396.14031" y1="296.95335" x2="396.14031" y2="384.85112" gradientUnits="userSpaceOnUse" id="color-20"><stop offset="0" stop-color="#00bbff"/><stop offset="1" stop-color="#00538c"/></linearGradient><linearGradient x1="396.14031" y1="296.95335" x2="396.14031" y2="384.85112" gradientUnits="userSpaceOnUse" id="color-21"><stop offset="0" stop-color="#00bbff"/><stop offset="1" stop-color="#00538c"/></linearGradient><linearGradient x1="350.01567" y1="302.38059" x2="350.01567" y2="322.01799" gradientUnits="userSpaceOnUse" id="color-22"><stop offset="0" stop-color="#ffffff"/><stop offset="1" stop-color="#b7cff0"/></linearGradient><linearGradient x1="361.80131" y1="304.72737" x2="361.80131" y2="323.5114" gradientUnits="userSpaceOnUse" id="color-23"><stop offset="0" stop-color="#ffffff"/><stop offset="1" stop-color="#b7cff0"/></linearGradient><linearGradient x1="355.82768" y1="298.11371" x2="355.82768" y2="316.89772" gradientUnits="userSpaceOnUse" id="color-24"><stop offset="0" stop-color="#ffffff"/><stop offset="1" stop-color="#b7cff0"/></linearGradient><linearGradient x1="389.91102" y1="310.91435" x2="389.91102" y2="330.55175" gradientUnits="userSpaceOnUse" id="color-25"><stop offset="0" stop-color="#ffffff"/><stop offset="1" stop-color="#b7cff0"/></linearGradient><linearGradient x1="401.69666" y1="313.26114" x2="401.69666" y2="332.04516" gradientUnits="userSpaceOnUse" id="color-26"><stop offset="0" stop-color="#ffffff"/><stop offset="1" stop-color="#b7cff0"/></linearGradient><linearGradient x1="395.72302" y1="306.64747" x2="395.72302" y2="325.43149" gradientUnits="userSpaceOnUse" id="color-27"><stop offset="0" stop-color="#ffffff"/><stop offset="1" stop-color="#b7cff0"/></linearGradient><linearGradient x1="426.92292" y1="302.7039" x2="426.92292" y2="322.3413" gradientUnits="userSpaceOnUse" id="color-28"><stop offset="0" stop-color="#ffffff"/><stop offset="1" stop-color="#b7cff0"/></linearGradient><linearGradient x1="438.70856" y1="305.05069" x2="438.70856" y2="323.83471" gradientUnits="userSpaceOnUse" id="color-29"><stop offset="0" stop-color="#ffffff"/><stop offset="1" stop-color="#b7cff0"/></linearGradient><linearGradient x1="432.73493" y1="298.43701" x2="432.73493" y2="317.22103" gradientUnits="userSpaceOnUse" id="color-30"><stop offset="0" stop-color="#ffffff"/><stop offset="1" stop-color="#b7cff0"/></linearGradient><linearGradient x1="374.66047" y1="341.11558" x2="374.66047" y2="397.53388" gradientUnits="userSpaceOnUse" id="color-31"><stop offset="0" stop-color="#3cff00"/><stop offset="1" stop-color="#008d08"/></linearGradient><linearGradient x1="374.66047" y1="341.11558" x2="374.66047" y2="397.53388" gradientUnits="userSpaceOnUse" id="color-32"><stop offset="0" stop-color="#3cff00"/><stop offset="1" stop-color="#008d08"/></linearGradient><linearGradient x1="430.55662" y1="346.87587" x2="430.55662" y2="403.29417" gradientUnits="userSpaceOnUse" id="color-33"><stop offset="0" stop-color="#3cff00"/><stop offset="1" stop-color="#008d08"/></linearGradient><linearGradient x1="430.55662" y1="346.87587" x2="430.55662" y2="403.29417" gradientUnits="userSpaceOnUse" id="color-34"><stop offset="0" stop-color="#3cff00"/><stop offset="1" stop-color="#008d08"/></linearGradient><linearGradient x1="449.97094" y1="356.47635" x2="449.97094" y2="412.89466" gradientUnits="userSpaceOnUse" id="color-35"><stop offset="0" stop-color="#3cff00"/><stop offset="1" stop-color="#008d08"/></linearGradient><linearGradient x1="449.97094" y1="356.47635" x2="449.97094" y2="412.89466" gradientUnits="userSpaceOnUse" id="color-36"><stop offset="0" stop-color="#3cff00"/><stop offset="1" stop-color="#008d08"/></linearGradient><linearGradient x1="379.78073" y1="356.90304" x2="379.78073" y2="413.32134" gradientUnits="userSpaceOnUse" id="color-37"><stop offset="0" stop-color="#3cff00"/><stop offset="1" stop-color="#008d08"/></linearGradient></defs><g transform="translate(-132.66572,-176.44388)"><g data-paper-data="{&quot;isPaintingLayer&quot;:true}" fill-rule="nonzero" stroke-linecap="butt" stroke-linejoin="miter" stroke-miterlimit="10" stroke-dasharray="" stroke-dashoffset="0" style="mix-blend-mode: normal"><path d="M143.53768,186.21321h136.64785v67.83806c-0.63078,1.12303 -1.24949,2.17812 -1.87107,3.11669c-1.03363,1.56076 0.29885,3.28146 -3.07191,4.77595c-1.30231,0.5774 -2.62099,-1.13186 -3.98313,-1.549c-3.11791,-0.95482 -6.98242,-1.04307 -10.12008,-0.16679c-4.71078,1.31562 -10.37984,4.6624 -15.23046,4.82017c-8.60063,0.27974 -17.23179,0.45909 -25.81507,-0.15449c-4.79183,-0.34255 -9.70308,-3.77492 -14.79219,-3.84551c-6.77713,-0.094 -13.55646,-0.11066 -20.33333,0c-0.44517,0.00727 -2.85568,0.92395 -3.20999,0.46586c-0.65675,-0.84911 -3.68259,-1.46028 -5.12334,-1.46586c-9.36891,-0.03629 -17.90304,0.96175 -27.03014,2.99397c-0.91069,0.20277 -0.61877,-1.7605 -0.91381,-2.64562c-0.48971,-1.46915 -1.90784,-3.76372 -3.00288,-4.85876c-0.98291,-0.98291 -1.66384,-1.95681 -2.15045,-2.92845z" fill="url(#color-1)" stroke="none" stroke-width="0"/><g data-paper-data="{&quot;index&quot;:null}" stroke="none" stroke-width="0"><path d="M175.86066,202.20915c0,5.42272 -4.86832,9.8187 -10.8737,9.8187c-6.00538,0 -10.87369,-4.39598 -10.87369,-9.8187c0,-5.42272 4.86831,-9.8187 10.87369,-9.8187c6.00538,0 10.8737,4.39598 10.8737,9.8187z" fill="url(#color-2)"/><path d="M187.91136,204.12925c0,5.18706 -4.98699,9.39201 -11.13876,9.39201c-6.15177,0 -11.13876,-4.20495 -11.13876,-9.39201c0,-5.18706 4.98699,-9.39201 11.13876,-9.39201c6.15177,0 11.13876,4.20495 11.13876,9.39201z" fill="url(#color-3)"/><path d="M181.93772,197.51558c0,5.18706 -4.98699,9.39201 -11.13876,9.39201c-6.15177,0 -11.13876,-4.20495 -11.13876,-9.39201c0,-5.18706 4.98699,-9.39201 11.13876,-9.39201c6.15177,0 11.13876,4.20495 11.13876,9.39201z" fill="url(#color-4)"/></g><g stroke="none" stroke-width="0"><path d="M215.75601,210.74291c0,5.42272 -4.86832,9.8187 -10.8737,9.8187c-6.00538,0 -10.87369,-4.39598 -10.87369,-9.8187c0,-5.42272 4.86831,-9.8187 10.87369,-9.8187c6.00538,0 10.8737,4.39598 10.8737,9.8187z" fill="url(#color-5)"/><path d="M227.8067,212.66301c0,5.18706 -4.98699,9.39202 -11.13876,9.39202c-6.15177,0 -11.13876,-4.20495 -11.13876,-9.39202c0,-5.18706 4.98699,-9.39201 11.13876,-9.39201c6.15177,0 11.13876,4.20495 11.13876,9.39201z" fill="url(#color-6)"/><path d="M221.83307,206.04934c0,5.18706 -4.98699,9.39201 -11.13876,9.39201c-6.15177,0 -11.13876,-4.20495 -11.13876,-9.39201c0,-5.18706 4.98699,-9.39201 11.13876,-9.39201c6.15177,0 11.13876,4.20495 11.13876,9.39201z" fill="url(#color-7)"/></g><g stroke="none" stroke-width="0"><path d="M253.51791,201.78246c0,5.42272 -4.86832,9.81869 -10.8737,9.81869c-6.00538,0 -10.87369,-4.39597 -10.87369,-9.81869c0,-5.42272 4.86831,-9.8187 10.87369,-9.8187c6.00538,0 10.8737,4.39598 10.8737,9.8187z" fill="url(#color-8)"/><path d="M265.56861,203.70256c0,5.18706 -4.98699,9.39201 -11.13876,9.39201c-6.15177,0 -11.13876,-4.20495 -11.13876,-9.39201c0,-5.18706 4.98699,-9.39201 11.13876,-9.39201c6.15177,0 11.13876,4.20495 11.13876,9.39201z" fill="url(#color-9)"/><path d="M259.59497,197.08889c0,5.18706 -4.98699,9.39201 -11.13876,9.39201c-6.15177,0 -11.13876,-4.20495 -11.13876,-9.39201c0,-5.18706 4.98699,-9.39202 11.13876,-9.39202c6.15177,0 11.13876,4.20495 11.13876,9.39202z" fill="url(#color-10)"/></g><path d="M190.38176,230.37544c39.47194,0 71.47027,12.62967 71.47027,28.20916c0,0.4985 -0.03276,0.99399 -0.09748,1.48613c-0.20783,0.04848 -0.41303,0.10094 -0.61521,0.15741c-4.71078,1.31562 -10.37984,4.6624 -15.23046,4.82017c-8.60063,0.27974 -17.23179,0.45909 -25.81507,-0.15449c-4.79183,-0.34255 -9.70308,-3.77492 -14.79219,-3.84551c-6.77713,-0.094 -13.55646,-0.11066 -20.33333,0c-0.44517,0.00727 -2.85568,0.92395 -3.20999,0.46586c-0.65675,-0.84911 -3.68259,-1.46028 -5.12334,-1.46586c-9.36891,-0.03629 -17.90304,0.96175 -27.03014,2.99397c-0.91069,0.20277 -0.61877,-1.7605 -0.91381,-2.64562c-0.48971,-1.46915 -1.90784,-3.76372 -3.00288,-4.85876c-4.78386,-4.78385 -2.41453,-9.35432 -5.30317,-14.48959c-0.21794,-0.38744 -0.48034,-0.7307 -0.77838,-1.03857c-0.25234,-0.3326 -0.52501,-0.64892 -0.81617,-0.94711c13.00794,-5.35398 31.31343,-8.68719 51.59135,-8.68719z" fill="url(#color-11)" stroke="none" stroke-width="0"/><path d="M246.27791,236.13573c15.66542,0 30.15367,1.9893 41.93168,5.36278c-4.21708,4.51998 -7.02552,11.3364 -9.89513,15.66946c-1.03363,1.56076 0.29885,3.28146 -3.07191,4.77595c-1.30231,0.5774 -2.62099,-1.13186 -3.98313,-1.549c-3.11791,-0.95482 -6.98242,-1.04307 -10.12008,-0.16679c-4.71078,1.31562 -10.37984,4.6624 -15.23046,4.82017c-8.60063,0.27974 -17.23179,0.45909 -25.81507,-0.15449c-4.79183,-0.34255 -9.70308,-3.77492 -14.79219,-3.84551c-6.77713,-0.094 -13.55646,-0.11066 -20.33333,0c-0.44517,0.00727 -2.85568,0.92395 -3.20999,0.46586c-0.65675,-0.84911 -3.68259,-1.46028 -5.12334,-1.46586c-0.33559,-0.0013 -0.67011,-0.00128 -1.00362,0.00008c5.24244,-13.54031 34.87559,-23.91265 70.64657,-23.91265z" fill="url(#color-12)" stroke="none" stroke-width="0"/><path d="" fill="url(#color-13)" stroke="none" stroke-width="0"/><path d="M265.69223,245.73621c6.45328,0 12.7068,0.33758 18.65338,0.97044c-2.26623,3.65216 -4.13534,7.59869 -6.03115,10.46132c-1.03363,1.56076 0.29885,3.28146 -3.07191,4.77595c-1.30231,0.5774 -2.62099,-1.13186 -3.98313,-1.549c-3.11791,-0.95482 -6.98242,-1.04307 -10.12008,-0.16679c-4.71078,1.31562 -10.37984,4.6624 -15.23046,4.82017c-8.60063,0.27974 -17.23179,0.45909 -25.81507,-0.15449c-4.79183,-0.34255 -9.70308,-3.77492 -14.79219,-3.84551c-1.04665,-0.01452 -2.09337,-0.02719 -3.14011,-0.03784c11.88121,-9.07258 35.87104,-15.27425 63.53071,-15.27425z" fill="url(#color-14)" stroke="none" stroke-width="0"/><path d="" fill="url(#color-15)" stroke="none" stroke-width="0"/><path d="M195.50202,246.1629c27.30133,0 51.0273,6.04203 63.06286,14.9231c-4.11223,1.53994 -8.66161,3.83239 -12.65599,3.9623c-8.60063,0.27974 -17.23179,0.45909 -25.81507,-0.15449c-4.79183,-0.34255 -9.70308,-3.77492 -14.79219,-3.84551c-6.77713,-0.094 -13.55646,-0.11066 -20.33333,0c-0.44517,0.00727 -2.85568,0.92395 -3.20999,0.46586c-0.65675,-0.84911 -3.68259,-1.46028 -5.12334,-1.46586c-9.36891,-0.03629 -17.90304,0.96175 -27.03014,2.99397c-0.91069,0.20277 -0.61877,-1.7605 -0.91381,-2.64562c-0.48971,-1.46915 -1.90784,-3.76372 -3.00288,-4.85876c-0.3449,-0.3449 -0.65261,-0.68868 -0.9278,-1.03165c12.94941,-5.15247 30.90145,-8.34334 50.74168,-8.34334z" fill="url(#color-16)" stroke="none" stroke-width="0"/><path d="" fill="url(#color-17)" stroke="none" stroke-width="0"/><path d="M138.91572,246.3546c0,-14.70957 0,-37.07201 0,-46.13095c0,-7.58542 6.90913,-17.52976 13.88764,-17.52976c17.13594,0 90.51501,0 118.86892,0c6.98989,0 11.24344,6.96654 11.24344,12.91667c0,8.80449 0,34.23801 0,50.43651c0,8.27984 -5.54769,14.14683 -12.05243,14.14683c-27.28287,0 -98.2481,0 -116.17229,0c-7.78591,0 -15.77528,-5.7674 -15.77528,-13.83929z" fill="none" stroke="#000000" stroke-width="12.5"/><path d="" fill="url(#color-18)" stroke="none" stroke-width="0"/><path d="" fill="url(#color-19)" stroke="none" stroke-width="0"/><path d="" fill="url(#color-20)" stroke="none" stroke-width="0"/><path d="" fill="url(#color-21)" stroke="none" stroke-width="0"/><g data-paper-data="{&quot;index&quot;:null}" stroke="none" stroke-width="0"><path d="" fill="url(#color-22)"/><path d="" fill="url(#color-23)"/><path d="" fill="url(#color-24)"/></g><g stroke="none" stroke-width="0"><path d="" fill="url(#color-25)"/><path d="" fill="url(#color-26)"/><path d="" fill="url(#color-27)"/></g><g stroke="none" stroke-width="0"><path d="" fill="url(#color-28)"/><path d="" fill="url(#color-29)"/><path d="" fill="url(#color-30)"/></g><path d="" fill="url(#color-31)" stroke="none" stroke-width="0"/><path d="" fill="url(#color-32)" stroke="none" stroke-width="0"/><path d="" fill="url(#color-33)" stroke="none" stroke-width="0"/><path d="" fill="url(#color-34)" stroke="none" stroke-width="0"/><path d="" fill="url(#color-35)" stroke="none" stroke-width="0"/><path d="" fill="url(#color-36)" stroke="none" stroke-width="0"/><path d="" fill="url(#color-37)" stroke="none" stroke-width="0"/><text transform="translate(157.41002,207.5) scale(0.5,0.5)" font-size="40" xml:space="preserve" fill="#ffffff" fill-rule="nonzero" stroke="#000000" stroke-width="10" stroke-linecap="butt" stroke-linejoin="miter" stroke-miterlimit="10" stroke-dasharray="" stroke-dashoffset="0" font-family="Sans Serif" font-weight="normal" text-anchor="start" style="mix-blend-mode: normal"><tspan x="0" dy="0">Shop</tspan></text><text transform="translate(157.41002,207.5) scale(0.5,0.5)" font-size="40" xml:space="preserve" fill="#ffffff" fill-rule="nonzero" stroke="#000000" stroke-width="10" stroke-linecap="butt" stroke-linejoin="miter" stroke-miterlimit="10" stroke-dasharray="" stroke-dashoffset="0" font-family="Sans Serif" font-weight="normal" text-anchor="start" style="mix-blend-mode: normal"><tspan x="0" dy="0">Shop</tspan></text><g fill="#ffffff" stroke="#ffffff" stroke-width="2" font-family="Sans Serif" font-weight="normal" font-size="40" text-anchor="start"><text transform="translate(156.16002,207.5) scale(0.5,0.5)" font-size="40" xml:space="preserve" fill="#ffffff" fill-rule="nonzero" stroke="#ffffff" stroke-width="2" stroke-linecap="butt" stroke-linejoin="miter" stroke-miterlimit="10" stroke-dasharray="" stroke-dashoffset="0" font-family="Sans Serif" font-weight="normal" text-anchor="start" style="mix-blend-mode: normal"><tspan x="0" dy="0">Shop</tspan></text><text transform="translate(158.66002,207.5) scale(0.5,0.5)" font-size="40" xml:space="preserve" fill="#ffffff" fill-rule="nonzero" stroke="#ffffff" stroke-width="2" stroke-linecap="butt" stroke-linejoin="miter" stroke-miterlimit="10" stroke-dasharray="" stroke-dashoffset="0" font-family="Sans Serif" font-weight="normal" text-anchor="start" style="mix-blend-mode: normal"><tspan x="0" dy="0">Shop</tspan></text></g></g></g></svg>