<svg version="1.1" xmlns="http://www.w3.org/2000/svg" xmlns:xlink="http://www.w3.org/1999/xlink" width="999.79424" height="156.70399" viewBox="0,0,999.79424,156.70399"><defs><linearGradient x1="340.34455" y1="183.40945" x2="359.62108" y2="202.00599" gradientUnits="userSpaceOnUse" id="color-1"><stop offset="0" stop-color="#88bdbd"/><stop offset="1" stop-color="#4a6666"/></linearGradient><linearGradient x1="301.82457" y1="178.40945" x2="282.54803" y2="197.00599" gradientUnits="userSpaceOnUse" id="color-2"><stop offset="0" stop-color="#88bdbd"/><stop offset="1" stop-color="#4a6666"/></linearGradient><linearGradient x1="330.5791" y1="214.52655" x2="330.5791" y2="241.69465" gradientUnits="userSpaceOnUse" id="color-3"><stop offset="0" stop-color="#88bdbd"/><stop offset="1" stop-color="#4a6666"/></linearGradient><linearGradient x1="305.5791" y1="214.52655" x2="305.5791" y2="241.69465" gradientUnits="userSpaceOnUse" id="color-4"><stop offset="0" stop-color="#88bdbd"/><stop offset="1" stop-color="#4a6666"/></linearGradient><linearGradient x1="319.0791" y1="175.36132" x2="319.0791" y2="213.36132" gradientUnits="userSpaceOnUse" id="color-5"><stop offset="0" stop-color="#88bdbd"/><stop offset="1" stop-color="#4a6666"/></linearGradient><linearGradient x1="319.03241" y1="104.92616" x2="319.03241" y2="184.92616" gradientUnits="userSpaceOnUse" id="color-6"><stop offset="0" stop-color="#88bdbd"/><stop offset="1" stop-color="#4a6666"/></linearGradient><linearGradient x1="322.1076" y1="107.59025" x2="322.1076" y2="149.0765" gradientUnits="userSpaceOnUse" id="color-7"><stop offset="0" stop-color="#ffffff" stop-opacity="0"/><stop offset="1" stop-color="#ffffff" stop-opacity="0"/></linearGradient><linearGradient x1="325.03238" y1="119.31157" x2="325.03238" y2="169.64491" gradientUnits="userSpaceOnUse" id="color-8"><stop offset="0" stop-color="#00374e"/><stop offset="1" stop-color="#000000"/></linearGradient><linearGradient x1="322.2253" y1="140.77583" x2="322.2253" y2="182.26207" gradientUnits="userSpaceOnUse" id="color-9"><stop offset="0" stop-color="#ffffff" stop-opacity="0"/><stop offset="1" stop-color="#ffffff" stop-opacity="0"/></linearGradient><linearGradient x1="319.75592" y1="128.31158" x2="319.75592" y2="163.31158" gradientUnits="userSpaceOnUse" id="color-10"><stop offset="0" stop-color="#00a9ff"/><stop offset="1" stop-color="#004060"/></linearGradient><linearGradient x1="343.97554" y1="128.31158" x2="343.97554" y2="163.31158" gradientUnits="userSpaceOnUse" id="color-11"><stop offset="0" stop-color="#00a9ff"/><stop offset="1" stop-color="#004060"/></linearGradient></defs><g transform="translate(155.34888,-107.09453)"><g data-paper-data="{&quot;isPaintingLayer&quot;:true}" fill-rule="nonzero" stroke-linejoin="miter" stroke-miterlimit="10" stroke-dasharray="" stroke-dashoffset="0" style="mix-blend-mode: normal"><g data-paper-data="{&quot;index&quot;:null}"><path d="M354.06669,207.76349l-19.27654,-18.59654l11.10879,-11.51498l19.27654,18.59654z" fill="url(#color-1)" stroke="none" stroke-width="0" stroke-linecap="butt"/><path d="M330.27981,165.35334c0,0 28.57423,23.76303 33.61766,28.52356c1.89707,1.79066 -6.26038,9.43835 -10.11428,12.93561c-1.00993,0.91647 -31.78956,-30.66554 -31.78956,-30.66554" fill="none" stroke="#000000" stroke-width="5" stroke-linecap="round"/></g><g><path d="M276.99363,191.2485l19.27654,-18.59655l11.10879,11.51499l-19.27654,18.59655z" fill="url(#color-2)" stroke="none" stroke-width="0" stroke-linecap="butt"/><path d="M320.17546,171.14697c0,0 -30.77962,31.58202 -31.78956,30.66554c-3.85389,-3.49725 -12.01134,-11.14494 -10.11427,-12.9356c5.04342,-4.76053 33.61765,-28.52356 33.61765,-28.52356" fill="none" stroke="#000000" stroke-width="5" stroke-linecap="round"/></g><path d="M322.5791,241.69465v-27.16811h16v27.16811z" fill="url(#color-3)" stroke="none" stroke-width="0" stroke-linecap="butt"/><path d="M338.09342,196.01604c0,0 1.35888,44.71014 -0.00189,44.80196c-5.19269,0.3504 -16.36033,0.91945 -16.33191,-1.72644c0.07556,-7.03421 2.81268,-44.62798 2.81268,-44.62798" fill="none" stroke="#000000" stroke-width="5" stroke-linecap="round"/><path d="M297.5791,241.69465v-27.16811h16v27.16811z" fill="url(#color-4)" stroke="none" stroke-width="0" stroke-linecap="butt"/><path d="M313.09342,196.01604c0,0 1.35889,44.71014 -0.00188,44.80196c-5.19268,0.3504 -16.36033,0.91945 -16.33191,-1.72644c0.07556,-7.03421 2.81268,-44.62798 2.81268,-44.62798" fill="none" stroke="#000000" stroke-width="5" stroke-linecap="round"/><path d="M298.5791,213.36132v-38h41v38z" fill="url(#color-5)" stroke="none" stroke-width="0" stroke-linecap="butt"/><path d="M339.5791,173.79691c0,0 3.26786,38.39929 -0.00454,38.47816c-12.48742,0.30094 -42.54988,0.78967 -42.48154,-1.48275c0.21792,-7.24584 1.15275,-38.32874 1.15275,-38.32874" fill="none" stroke="#000000" stroke-width="5" stroke-linecap="round"/><path d="M281.69908,144.59283c0,-16.26958 7.04666,-23.93714 20.99058,-30.18663c4.98961,-2.23629 13.18761,-6.48003 19.00942,-6.48003c22.09139,0 37.33334,14.90861 37.33334,37c0,22.09139 -13.24194,39 -35.33334,39c-22.09139,0 -42,-17.24195 -42,-39.33334z" fill="url(#color-6)" stroke="none" stroke-width="0" stroke-linecap="butt"/><path d="M283.4885,149.0765c0,0 -0.76506,-9.01732 1.75613,-17.68105c1.67015,-5.73925 5.7177,-11.32334 9.01803,-14.0281c5.34374,-4.3794 24.3324,-7.77281 24.89251,-7.77281c5.98256,0 19.16318,-2.36981 27.04539,3.76735c2.74676,2.13865 6.21429,7.29034 7.394,12.98384c0.66716,3.21982 4.32278,3.84217 5.35645,6.82057c2.17021,6.25326 1.87083,13.80402 1.87083,13.80402" data-paper-data="{&quot;index&quot;:null}" fill="url(#color-7)" stroke="#000000" stroke-width="5" stroke-linecap="round"/><path d="M360.86573,144.47824c0,6.94945 -3.34397,16.90768 -9.8283,21.46193c-6.48458,4.55443 -16.10974,3.70474 -26.00503,3.70474c-19.79021,0 -35.83334,-11.2675 -35.83334,-25.16667c0,-13.89917 16.04313,-25.16667 35.83334,-25.16667c19.79021,0 35.83334,11.2675 35.83334,25.16667z" fill="url(#color-8)" stroke="none" stroke-width="0" stroke-linecap="butt"/><path d="M359.48852,140.88201c0,0 2.54213,8.04982 1.18285,13.04332c-1.14796,4.2172 -6.13,5.01188 -7.0768,9.58128c-1.17971,5.69349 -4.64724,10.84518 -7.394,12.98383c-7.88221,6.13716 -21.06283,5.43402 -27.04539,5.43402c-4.89376,0 -18.85812,-4.49404 -24.89251,-9.43948c-3.30033,-2.70476 -7.34788,-8.28885 -9.01803,-14.0281c-2.52119,-8.66373 -1.75613,-17.68105 -1.75613,-17.68105" fill="url(#color-9)" stroke="#000000" stroke-width="5" stroke-linecap="round"/><path d="M359.15518,142.96913c0,0 1.50727,7.48614 -0.56061,13.90206c-1.17971,3.66025 -4.64724,6.97217 -7.394,8.34707c-7.88221,3.94546 -21.06283,3.70772 -27.04539,3.70772c-4.89376,0 -18.85812,-3.10343 -24.89251,-6.28276c-3.30033,-1.73884 -7.34788,-5.32875 -9.01803,-9.01841c-2.52119,-5.56975 -1.75613,-11.36682 -1.75613,-11.36682" fill="none" stroke="#000000" stroke-width="5" stroke-linecap="round"/><path d="M288.4885,147.59434c0,0 -0.76506,-5.79707 1.75613,-11.36682c1.67015,-3.68966 5.7177,-7.27957 9.01803,-9.01841c6.03439,-3.17933 19.99875,-6.28276 24.89251,-6.28276c5.98256,0 19.16318,-0.23774 27.04539,3.70772c2.74676,1.3749 6.21429,4.68682 7.394,8.34707c2.06788,6.41592 0.56061,13.90206 0.56061,13.90206" data-paper-data="{&quot;index&quot;:null}" fill="none" stroke="#000000" stroke-width="5" stroke-linecap="round"/><path d="M329.31278,145.81158c0,9.66499 -4.27875,17.5 -9.55686,17.5c-5.27811,0 -9.55686,-7.83501 -9.55686,-17.5c0,-9.66499 4.27875,-17.5 9.55686,-17.5c5.27811,0 9.55686,7.83501 9.55686,17.5z" fill="url(#color-10)" stroke="none" stroke-width="0" stroke-linecap="butt"/><path d="M353.5324,145.81158c0,9.66499 -4.27875,17.5 -9.55686,17.5c-5.27811,0 -9.55686,-7.83501 -9.55686,-17.5c0,-9.66499 4.27875,-17.5 9.55686,-17.5c5.27811,0 9.55686,7.83501 9.55686,17.5z" fill="url(#color-11)" stroke="none" stroke-width="0" stroke-linecap="butt"/><g fill-opacity="0.36471" fill="#ffffff" stroke="none" stroke-width="0" stroke-linecap="butt"><g><g><path d="M280.70756,229.93546c-14.26274,13.21912 -57.76788,24.28691 -63.82474,9.79261c-5.92209,-14.17179 -26.43754,-24.85893 -12.1748,-38.07805c14.26274,-13.21911 42.83805,-17.60342 63.82474,-9.7926c5.1504,1.91687 -6.34115,-10.71922 -0.38318,-17.45131c5.33611,-6.02944 28.15607,-6.02531 32.38415,-7.83292c7.34242,-3.13907 59.06002,7.77191 69.05211,19.36293c7.63237,8.8537 34.2678,6.22171 53.9643,-1.27327c43.36484,-16.50135 59.69459,8.59684 28.50829,37.41614c-52.5253,48.53869 -72.07559,0.17818 -72.6353,5.59277c-0.74892,7.24491 -17.6522,-9.63657 -28.65138,9.09689c-9.26578,15.78118 -68.10189,-8.65189 -70.06418,-6.83318z" data-paper-data="{&quot;index&quot;:null}"/><path d="M389.57835,195.81571c16.67957,-12.20446 62.01207,-20.35912 65.28411,-5.55892c3.19923,14.4709 21.56157,26.4329 4.882,38.63736c-16.67957,12.20447 -45.90826,14.69328 -65.28409,5.55892c-4.75508,-2.24169 4.27007,11.06718 -2.92683,17.3679c-6.44574,5.6431 -29.12309,4.14704 -33.6675,5.66699c-7.89175,2.63952 -57.2199,-11.58491 -64.95298,-23.75718c-5.90685,-9.29768 -32.8756,-8.42345 -53.87024,-2.26279c-46.22291,13.56363 -57.69417,-12.44622 -21.23943,-39.04745c61.39863,-44.80293 71.66141,4.53519 73.2439,-0.80915c2.11743,-7.15093 15.71601,10.73076 30.19748,-7.16714c12.19928,-15.07731 66.03878,13.05058 68.33359,11.37147z" data-paper-data="{&quot;index&quot;:null}"/></g><g><path d="M381.16364,234.93546c-14.26274,13.21912 -57.76788,24.28691 -63.82474,9.79261c-5.92209,-14.17179 -26.43754,-24.85893 -12.1748,-38.07805c14.26274,-13.21911 42.83805,-17.60341 63.82474,-9.7926c5.1504,1.91687 -6.34115,-10.71922 -0.38318,-17.45131c5.33611,-6.02944 28.15607,-6.02531 32.38415,-7.83292c7.34242,-3.13907 59.06002,7.77191 69.05211,19.36293c7.63237,8.8537 34.2678,6.22171 53.9643,-1.27327c43.36484,-16.50135 59.69459,8.59684 28.50829,37.41614c-52.5253,48.53868 -72.07559,0.17818 -72.6353,5.59277c-0.74892,7.24491 -17.6522,-9.63657 -28.65138,9.09689c-9.26578,15.78118 -68.10189,-8.65189 -70.06418,-6.83318z" data-paper-data="{&quot;index&quot;:null}"/><path d="M490.03443,200.81571c16.67957,-12.20446 62.01207,-20.35912 65.28411,-5.55891c3.19923,14.47089 21.56157,26.4329 4.882,38.63736c-16.67957,12.20447 -45.90826,14.69328 -65.28409,5.55891c-4.75508,-2.24169 4.27007,11.06718 -2.92683,17.3679c-6.44574,5.6431 -29.12309,4.14704 -33.6675,5.66699c-7.89175,2.63952 -57.2199,-11.58491 -64.95298,-23.75718c-5.90685,-9.29768 -32.8756,-8.42345 -53.87024,-2.26279c-46.22291,13.56363 -57.69417,-12.44622 -21.23943,-39.04745c61.39863,-44.80293 71.66141,4.53519 73.2439,-0.80915c2.11743,-7.15092 15.71601,10.73077 30.19748,-7.16713c12.19928,-15.07731 66.03878,13.05058 68.33359,11.37146z" data-paper-data="{&quot;index&quot;:null}"/></g><g><path d="M156.41444,230.93546c-14.26274,13.21911 -57.76788,24.2869 -63.82474,9.7926c-5.92209,-14.17179 -26.43754,-24.85893 -12.1748,-38.07805c14.26274,-13.21911 42.83805,-17.60341 63.82474,-9.7926c5.1504,1.91687 -6.34115,-10.71922 -0.38318,-17.45131c5.33611,-6.02944 28.15607,-6.02531 32.38415,-7.83292c7.34242,-3.13908 59.06002,7.7719 69.05211,19.36293c7.63237,8.8537 34.2678,6.22171 53.9643,-1.27328c43.36484,-16.50135 59.69459,8.59684 28.50829,37.41614c-52.5253,48.53868 -72.07559,0.17818 -72.6353,5.59277c-0.74892,7.24491 -17.6522,-9.63657 -28.65138,9.09689c-9.26578,15.78118 -68.10189,-8.65189 -70.06418,-6.83318z" data-paper-data="{&quot;index&quot;:null}"/><path d="M265.28523,196.81571c16.67957,-12.20447 62.01207,-20.35912 65.28411,-5.55892c3.19923,14.4709 21.56157,26.4329 4.882,38.63737c-16.67957,12.20446 -45.90826,14.69327 -65.28409,5.55891c-4.75508,-2.24169 4.27007,11.06718 -2.92683,17.3679c-6.44574,5.6431 -29.12309,4.14704 -33.6675,5.66699c-7.89175,2.63952 -57.2199,-11.58491 -64.95298,-23.75718c-5.90685,-9.29767 -32.8756,-8.42345 -53.87024,-2.26279c-46.22291,13.56363 -57.69417,-12.44621 -21.23943,-39.04745c61.39863,-44.80294 71.66141,4.53519 73.2439,-0.80916c2.11743,-7.15093 15.71601,10.73076 30.19748,-7.16714c12.19928,-15.0773 66.03878,13.05058 68.33359,11.37147z" data-paper-data="{&quot;index&quot;:null}"/></g><g><path d="M309.65253,233.43546c-14.26274,13.21911 -57.76788,24.2869 -63.82474,9.7926c-5.92209,-14.17179 -26.43754,-24.85893 -12.1748,-38.07805c14.26274,-13.21911 42.83805,-17.60341 63.82474,-9.7926c5.1504,1.91687 -6.34115,-10.71922 -0.38318,-17.45131c5.33611,-6.02944 28.15607,-6.02531 32.38415,-7.83292c7.34242,-3.13908 59.06002,7.7719 69.05211,19.36293c7.63237,8.8537 34.2678,6.22171 53.9643,-1.27328c43.36484,-16.50135 59.69459,8.59684 28.50829,37.41614c-52.5253,48.53868 -72.07559,0.17818 -72.6353,5.59277c-0.74892,7.24491 -17.6522,-9.63657 -28.65138,9.09689c-9.26578,15.78118 -68.10189,-8.65189 -70.06418,-6.83318z" data-paper-data="{&quot;index&quot;:null}"/><path d="M418.52332,199.31571c16.67957,-12.20447 62.01207,-20.35912 65.28411,-5.55892c3.19923,14.4709 21.56157,26.4329 4.882,38.63737c-16.67957,12.20446 -45.90826,14.69327 -65.28409,5.55891c-4.75508,-2.24169 4.27007,11.06718 -2.92683,17.3679c-6.44574,5.6431 -29.12309,4.14704 -33.6675,5.66699c-7.89175,2.63952 -57.2199,-11.58491 -64.95298,-23.75718c-5.90685,-9.29767 -32.8756,-8.42345 -53.87024,-2.26279c-46.22291,13.56363 -57.69417,-12.44621 -21.23943,-39.04745c61.39863,-44.80294 71.66141,4.53519 73.2439,-0.80916c2.11743,-7.15093 15.71601,10.73076 30.19748,-7.16714c12.19928,-15.0773 66.03878,13.05058 68.33359,11.37147z" data-paper-data="{&quot;index&quot;:null}"/></g></g><g><g><path d="M53.43364,218.41894c-14.26274,13.21912 -57.76788,24.2869 -63.82474,9.79261c-5.92209,-14.17179 -26.43754,-24.85893 -12.1748,-38.07804c14.26274,-13.21911 42.83805,-17.60342 63.82474,-9.7926c5.1504,1.91687 -6.34115,-10.71922 -0.38318,-17.45131c5.33611,-6.02944 28.15607,-6.02531 32.38415,-7.83292c7.34242,-3.13907 59.06002,7.77191 69.05212,19.36293c7.63237,8.8537 34.2678,6.22171 53.9643,-1.27327c43.36483,-16.50135 59.69459,8.59684 28.50829,37.41614c-52.5253,48.53868 -72.0756,0.17818 -72.63531,5.59277c-0.74892,7.24491 -17.6522,-9.63656 -28.65139,9.09689c-9.26578,15.78118 -68.10189,-8.65189 -70.06418,-6.83318z" data-paper-data="{&quot;index&quot;:null}"/><path d="M162.30443,184.2992c16.67957,-12.20446 62.01207,-20.35912 65.2841,-5.55892c3.19923,14.4709 21.56157,26.4329 4.88199,38.63736c-16.67957,12.20447 -45.90826,14.69328 -65.28409,5.55892c-4.75508,-2.24169 4.27007,11.06718 -2.92683,17.3679c-6.44574,5.64309 -29.12309,4.14703 -33.66749,5.66698c-7.89176,2.63952 -57.2199,-11.58491 -64.95298,-23.75718c-5.90685,-9.29767 -32.8756,-8.42345 -53.87024,-2.26279c-46.22291,13.56363 -57.69417,-12.44622 -21.23942,-39.04745c61.39863,-44.80293 71.6614,4.53519 73.24389,-0.80915c2.11743,-7.15093 15.71601,10.73076 30.19748,-7.16714c12.19927,-15.07731 66.03878,13.05058 68.33359,11.37147z" data-paper-data="{&quot;index&quot;:null}"/></g><g><path d="M153.88972,223.41894c-14.26274,13.21912 -57.76788,24.2869 -63.82474,9.79261c-5.92209,-14.17179 -26.43754,-24.85893 -12.1748,-38.07804c14.26274,-13.21911 42.83805,-17.60342 63.82473,-9.7926c5.1504,1.91687 -6.34114,-10.71922 -0.38318,-17.45131c5.33611,-6.02944 28.15607,-6.02531 32.38416,-7.83292c7.34242,-3.13907 59.06002,7.77191 69.05211,19.36293c7.63237,8.8537 34.2678,6.22171 53.9643,-1.27327c43.36484,-16.50135 59.69458,8.59684 28.50828,37.41614c-52.5253,48.53869 -72.07559,0.17818 -72.6353,5.59277c-0.74892,7.24492 -17.6522,-9.63656 -28.65139,9.09689c-9.26578,15.78118 -68.10189,-8.65189 -70.06418,-6.83318z" data-paper-data="{&quot;index&quot;:null}"/><path d="M262.76051,189.2992c16.67958,-12.20446 62.01208,-20.35912 65.28411,-5.55892c3.19923,14.4709 21.56157,26.4329 4.88199,38.63736c-16.67957,12.20447 -45.90826,14.69328 -65.28409,5.55892c-4.75508,-2.24169 4.27007,11.06718 -2.92683,17.3679c-6.44574,5.6431 -29.12309,4.14703 -33.6675,5.66698c-7.89175,2.63952 -57.2199,-11.58491 -64.95298,-23.75718c-5.90685,-9.29768 -32.8756,-8.42346 -53.87023,-2.26279c-46.22291,13.56363 -57.69417,-12.44622 -21.23943,-39.04745c61.39863,-44.80293 71.66141,4.53519 73.2439,-0.80915c2.11743,-7.15093 15.71601,10.73076 30.19748,-7.16714c12.19927,-15.07731 66.03877,13.05058 68.33358,11.37147z" data-paper-data="{&quot;index&quot;:null}"/></g><g><path d="M-70.85947,219.41894c-14.26273,13.21912 -57.76788,24.2869 -63.82474,9.79261c-5.92209,-14.17179 -26.43753,-24.85893 -12.1748,-38.07804c14.26274,-13.21911 42.83805,-17.60342 63.82474,-9.7926c5.1504,1.91687 -6.34114,-10.71922 -0.38318,-17.45131c5.33611,-6.02944 28.15607,-6.02531 32.38415,-7.83292c7.34242,-3.13907 59.06002,7.77191 69.05211,19.36293c7.63237,8.8537 34.2678,6.22171 53.9643,-1.27327c43.36484,-16.50135 59.69459,8.59684 28.50829,37.41614c-52.5253,48.53868 -72.0756,0.17818 -72.63531,5.59277c-0.74892,7.24491 -17.6522,-9.63656 -28.65139,9.09689c-9.26578,15.78118 -68.10189,-8.65189 -70.06418,-6.83318z" data-paper-data="{&quot;index&quot;:null}"/><path d="M38.01132,185.2992c16.67958,-12.20446 62.01207,-20.35912 65.2841,-5.55892c3.19923,14.4709 21.56157,26.4329 4.88199,38.63736c-16.67957,12.20447 -45.90826,14.69328 -65.28409,5.55892c-4.75508,-2.24169 4.27008,11.06718 -2.92683,17.3679c-6.44574,5.64309 -29.12308,4.14703 -33.6675,5.66698c-7.89175,2.63952 -57.2199,-11.58491 -64.95298,-23.75718c-5.90685,-9.29767 -32.87559,-8.42345 -53.87023,-2.26279c-46.2229,13.56363 -57.69418,-12.44622 -21.23943,-39.04745c61.39863,-44.80293 71.66141,4.53519 73.2439,-0.80915c2.11742,-7.15093 15.71601,10.73076 30.19748,-7.16714c12.19927,-15.07731 66.03878,13.05058 68.33359,11.37147z" data-paper-data="{&quot;index&quot;:null}"/></g><g><path d="M82.37861,221.91894c-14.26274,13.21912 -57.76788,24.2869 -63.82474,9.79261c-5.92209,-14.17179 -26.43754,-24.85893 -12.1748,-38.07804c14.26274,-13.21911 42.83804,-17.60342 63.82474,-9.7926c5.1504,1.91687 -6.34115,-10.71922 -0.38318,-17.45131c5.33611,-6.02944 28.15607,-6.02531 32.38415,-7.83292c7.34242,-3.13907 59.06002,7.77191 69.05211,19.36293c7.63237,8.8537 34.2678,6.22171 53.9643,-1.27327c43.36484,-16.50135 59.69459,8.59684 28.50829,37.41614c-52.5253,48.53868 -72.0756,0.17818 -72.63531,5.59277c-0.74892,7.24492 -17.6522,-9.63656 -28.65139,9.09689c-9.26578,15.78118 -68.10189,-8.65189 -70.06418,-6.83318z" data-paper-data="{&quot;index&quot;:null}"/><path d="M191.2494,187.7992c16.67957,-12.20446 62.01207,-20.35912 65.2841,-5.55892c3.19923,14.4709 21.56157,26.4329 4.88199,38.63736c-16.67957,12.20447 -45.90826,14.69328 -65.28409,5.55892c-4.75508,-2.24169 4.27007,11.06718 -2.92683,17.3679c-6.44574,5.6431 -29.12308,4.14703 -33.66749,5.66698c-7.89176,2.63952 -57.2199,-11.58491 -64.95299,-23.75718c-5.90685,-9.29768 -32.87559,-8.42346 -53.87023,-2.2628c-46.2229,13.56363 -57.69417,-12.44622 -21.23943,-39.04745c61.39862,-44.80293 71.66141,4.53519 73.2439,-0.80915c2.11743,-7.15093 15.71602,10.73076 30.19748,-7.16714c12.19927,-15.07731 66.03877,13.05058 68.33359,11.37147z" data-paper-data="{&quot;index&quot;:null}"/></g></g><g><g><path d="M556.47332,230.92645c-14.26274,13.21911 -57.76788,24.28691 -63.82473,9.79261c-5.92209,-14.17179 -26.43754,-24.85893 -12.1748,-38.07805c14.26274,-13.21911 42.83804,-17.60341 63.82473,-9.7926c5.1504,1.91687 -6.34115,-10.71922 -0.38318,-17.45131c5.33611,-6.02944 28.15607,-6.02531 32.38415,-7.83292c7.34242,-3.13907 59.06002,7.77191 69.05211,19.36293c7.63237,8.8537 34.26779,6.22171 53.96429,-1.27327c43.36484,-16.50135 59.69459,8.59684 28.50829,37.41614c-52.5253,48.53869 -72.0756,0.17818 -72.63531,5.59277c-0.74891,7.24491 -17.6522,-9.63657 -28.65138,9.09689c-9.26578,15.78118 -68.10189,-8.65189 -70.06418,-6.83318z" data-paper-data="{&quot;index&quot;:null}"/><path d="M665.34411,196.8067c16.67958,-12.20446 62.01207,-20.35912 65.2841,-5.55892c3.19923,14.4709 21.56157,26.4329 4.882,38.63736c-16.67958,12.20447 -45.90826,14.69328 -65.28409,5.55892c-4.75508,-2.24169 4.27008,11.06718 -2.92683,17.3679c-6.44574,5.6431 -29.12309,4.14704 -33.6675,5.66699c-7.89175,2.63952 -57.2199,-11.58491 -64.95298,-23.75718c-5.90685,-9.29768 -32.8756,-8.42345 -53.87024,-2.26279c-46.22291,13.56363 -57.69417,-12.44622 -21.23943,-39.04745c61.39862,-44.80293 71.6614,4.53519 73.24389,-0.80915c2.11743,-7.15093 15.71601,10.73076 30.19748,-7.16714c12.19927,-15.07731 66.03878,13.05058 68.33359,11.37147z" data-paper-data="{&quot;index&quot;:null}"/></g><g><path d="M656.9294,235.92645c-14.26274,13.21911 -57.76788,24.28691 -63.82474,9.79261c-5.92209,-14.17179 -26.43754,-24.85893 -12.1748,-38.07805c14.26274,-13.21911 42.83805,-17.60341 63.82474,-9.7926c5.1504,1.91687 -6.34115,-10.71922 -0.38318,-17.45131c5.33611,-6.02944 28.15607,-6.02531 32.38415,-7.83292c7.34242,-3.13907 59.06002,7.77191 69.05211,19.36293c7.63237,8.8537 34.2678,6.22171 53.9643,-1.27327c43.36483,-16.50135 59.69458,8.59684 28.50828,37.41614c-52.5253,48.53868 -72.07559,0.17818 -72.6353,5.59277c-0.74892,7.24491 -17.6522,-9.63657 -28.65139,9.09689c-9.26578,15.78118 -68.1019,-8.65189 -70.06418,-6.83318z" data-paper-data="{&quot;index&quot;:null}"/><path d="M765.80019,201.8067c16.67958,-12.20446 62.01208,-20.35912 65.28411,-5.55892c3.19923,14.4709 21.56157,26.4329 4.88199,38.63736c-16.67957,12.20447 -45.90826,14.69328 -65.28409,5.55892c-4.75508,-2.24169 4.27007,11.06718 -2.92683,17.3679c-6.44574,5.6431 -29.12309,4.14704 -33.6675,5.66699c-7.89176,2.63952 -57.2199,-11.58491 -64.95298,-23.75718c-5.90685,-9.29768 -32.8756,-8.42345 -53.87024,-2.26279c-46.22291,13.56363 -57.69418,-12.44622 -21.23943,-39.04745c61.39863,-44.80293 71.66141,4.53519 73.2439,-0.80915c2.11742,-7.15093 15.71601,10.73076 30.19748,-7.16714c12.19928,-15.07731 66.03878,13.05058 68.33359,11.37147z" data-paper-data="{&quot;index&quot;:null}"/></g><g><path d="M432.18021,231.92645c-14.26274,13.21911 -57.76788,24.28691 -63.82474,9.79261c-5.92209,-14.17179 -26.43754,-24.85893 -12.1748,-38.07805c14.26274,-13.21911 42.83804,-17.60341 63.82474,-9.7926c5.1504,1.91687 -6.34114,-10.71922 -0.38318,-17.45131c5.33611,-6.02944 28.15607,-6.02531 32.38415,-7.83292c7.34242,-3.13907 59.06002,7.77191 69.05211,19.36293c7.63237,8.8537 34.2678,6.22171 53.9643,-1.27327c43.36484,-16.50135 59.69459,8.59684 28.50829,37.41614c-52.5253,48.53869 -72.0756,0.17818 -72.63531,5.59277c-0.74892,7.24491 -17.6522,-9.63657 -28.65139,9.09689c-9.26578,15.78118 -68.10189,-8.65189 -70.06418,-6.83318z" data-paper-data="{&quot;index&quot;:null}"/><path d="M541.051,197.8067c16.67958,-12.20446 62.01207,-20.35912 65.2841,-5.55892c3.19923,14.4709 21.56157,26.4329 4.88199,38.63736c-16.67957,12.20447 -45.90826,14.69328 -65.28409,5.55892c-4.75508,-2.24169 4.27007,11.06718 -2.92683,17.3679c-6.44574,5.6431 -29.12308,4.14704 -33.66749,5.66699c-7.89176,2.63952 -57.2199,-11.58491 -64.95299,-23.75718c-5.90685,-9.29768 -32.87559,-8.42345 -53.87023,-2.26279c-46.2229,13.56363 -57.69417,-12.44622 -21.23943,-39.04745c61.39862,-44.80293 71.6614,4.53519 73.24389,-0.80915c2.11743,-7.15093 15.71601,10.73076 30.19748,-7.16714c12.19927,-15.07731 66.03878,13.05058 68.33359,11.37147z" data-paper-data="{&quot;index&quot;:null}"/></g><g><path d="M585.41829,234.42645c-14.26274,13.21911 -57.76788,24.28691 -63.82473,9.79261c-5.92209,-14.17179 -26.43753,-24.85893 -12.1748,-38.07805c14.26273,-13.21911 42.83804,-17.60341 63.82473,-9.7926c5.1504,1.91687 -6.34115,-10.71922 -0.38318,-17.45131c5.33611,-6.02944 28.15607,-6.02531 32.38415,-7.83292c7.34242,-3.13907 59.06002,7.77191 69.05211,19.36293c7.63237,8.8537 34.2678,6.22171 53.9643,-1.27327c43.36484,-16.50135 59.69458,8.59684 28.50828,37.41614c-52.5253,48.53868 -72.0756,0.17818 -72.63531,5.59277c-0.74891,7.24491 -17.6522,-9.63657 -28.65138,9.09689c-9.26578,15.78118 -68.10189,-8.65189 -70.06418,-6.83318z" data-paper-data="{&quot;index&quot;:null}"/><path d="M694.28908,200.3067c16.67958,-12.20446 62.01207,-20.35912 65.28411,-5.55892c3.19923,14.4709 21.56157,26.4329 4.88199,38.63736c-16.67958,12.20447 -45.90826,14.69328 -65.28409,5.55892c-4.75508,-2.24169 4.27008,11.06718 -2.92683,17.3679c-6.44574,5.6431 -29.12309,4.14704 -33.6675,5.66699c-7.89175,2.63952 -57.2199,-11.58491 -64.95298,-23.75718c-5.90685,-9.29768 -32.87559,-8.42345 -53.87024,-2.26279c-46.2229,13.56363 -57.69417,-12.44622 -21.23943,-39.04745c61.39862,-44.80293 71.66141,4.53519 73.2439,-0.80915c2.11742,-7.15093 15.71601,10.73076 30.19748,-7.16714c12.19927,-15.07731 66.03877,13.05058 68.33358,11.37147z" data-paper-data="{&quot;index&quot;:null}"/></g></g></g></g></g></svg>