<svg version="1.1" xmlns="http://www.w3.org/2000/svg" xmlns:xlink="http://www.w3.org/1999/xlink" width="92.37575" height="136.97951" viewBox="0,0,92.37575,136.97951"><defs><linearGradient x1="341.04213" y1="139.89684" x2="353.85142" y2="179.34817" gradientUnits="userSpaceOnUse" id="color-1"><stop offset="0" stop-color="#88bdbd"/><stop offset="1" stop-color="#4a6666"/></linearGradient><linearGradient x1="298.62779" y1="140.15508" x2="287.28378" y2="180.05243" gradientUnits="userSpaceOnUse" id="color-2"><stop offset="0" stop-color="#88bdbd"/><stop offset="1" stop-color="#4a6666"/></linearGradient><linearGradient x1="330.5791" y1="135.09427" x2="330.5791" y2="107.92617" gradientUnits="userSpaceOnUse" id="color-3"><stop offset="0" stop-color="#88bdbd"/><stop offset="1" stop-color="#4a6666"/></linearGradient><linearGradient x1="305.5791" y1="135.09427" x2="305.5791" y2="107.92617" gradientUnits="userSpaceOnUse" id="color-4"><stop offset="0" stop-color="#88bdbd"/><stop offset="1" stop-color="#4a6666"/></linearGradient><linearGradient x1="319.0791" y1="174.2595" x2="319.0791" y2="136.2595" gradientUnits="userSpaceOnUse" id="color-5"><stop offset="0" stop-color="#88bdbd"/><stop offset="1" stop-color="#4a6666"/></linearGradient><linearGradient x1="319.03241" y1="244.69466" x2="319.03241" y2="164.69466" gradientUnits="userSpaceOnUse" id="color-6"><stop offset="0" stop-color="#88bdbd"/><stop offset="1" stop-color="#4a6666"/></linearGradient><linearGradient x1="322.1076" y1="242.03057" x2="322.1076" y2="200.54432" gradientUnits="userSpaceOnUse" id="color-7"><stop offset="0" stop-color="#ffffff" stop-opacity="0"/><stop offset="1" stop-color="#ffffff" stop-opacity="0"/></linearGradient><linearGradient x1="325.03238" y1="230.30925" x2="325.03238" y2="179.97591" gradientUnits="userSpaceOnUse" id="color-8"><stop offset="0" stop-color="#00374e"/><stop offset="1" stop-color="#000000"/></linearGradient><linearGradient x1="322.2253" y1="208.84499" x2="322.2253" y2="167.35875" gradientUnits="userSpaceOnUse" id="color-9"><stop offset="0" stop-color="#ffffff" stop-opacity="0"/><stop offset="1" stop-color="#ffffff" stop-opacity="0"/></linearGradient><linearGradient x1="315.54375" y1="221.69216" x2="315.54375" y2="186.69216" gradientUnits="userSpaceOnUse" id="color-10"><stop offset="0" stop-color="#00a9ff"/><stop offset="1" stop-color="#004060"/></linearGradient><linearGradient x1="337.46582" y1="221.30924" x2="337.46582" y2="186.30924" gradientUnits="userSpaceOnUse" id="color-11"><stop offset="0" stop-color="#00a9ff"/><stop offset="1" stop-color="#004060"/></linearGradient></defs><g transform="translate(-275.06715,-105.99675)"><g data-paper-data="{&quot;isPaintingLayer&quot;:true}" fill-rule="nonzero" stroke-linejoin="miter" stroke-miterlimit="10" stroke-dasharray="" stroke-dashoffset="0" style="mix-blend-mode: normal"><path d="M330.45628,175.59593c0,0 19.52215,-39.54358 20.76574,-38.98379c4.74554,2.13617 14.866,6.89091 13.61464,9.17989c-3.32679,6.08534 -23.16596,37.51105 -23.16596,37.51105" fill="url(#color-1)" stroke="#000000" stroke-width="5" stroke-linecap="round"/><path d="M299.60222,183.55492c0,0 -20.98589,-30.67182 -24.53508,-36.63018c-1.33502,-2.24122 8.60299,-7.36636 13.26642,-9.67628c1.22208,-0.60533 22.19087,38.19053 22.19087,38.19053" fill="url(#color-2)" stroke="#000000" stroke-width="5" stroke-linecap="round"/><path d="M338.5791,107.92617v27.16811h-16v-27.16811z" data-paper-data="{&quot;index&quot;:null}" fill="url(#color-3)" stroke="none" stroke-width="0" stroke-linecap="butt"/><path d="M324.5723,155.15724c0,0 -2.73712,-37.59377 -2.81268,-44.62798c-0.02842,-2.64589 11.13922,-2.07684 16.33191,-1.72644c1.36077,0.09182 0.00189,44.80196 0.00189,44.80196" data-paper-data="{&quot;index&quot;:null}" fill="none" stroke="#000000" stroke-width="5" stroke-linecap="round"/><path d="M313.5791,107.92617v27.16811h-16v-27.16811z" data-paper-data="{&quot;index&quot;:null}" fill="url(#color-4)" stroke="none" stroke-width="0" stroke-linecap="butt"/><path d="M299.57231,155.15724c0,0 -2.73712,-37.59377 -2.81268,-44.62798c-0.02842,-2.64589 11.13923,-2.07684 16.33191,-1.72644c1.36077,0.09182 0.00188,44.80196 0.00188,44.80196" data-paper-data="{&quot;index&quot;:null}" fill="none" stroke="#000000" stroke-width="5" stroke-linecap="round"/><path d="M339.5791,136.2595v38h-41v-38z" data-paper-data="{&quot;index&quot;:null}" fill="url(#color-5)" stroke="none" stroke-width="0" stroke-linecap="butt"/><path d="M298.24577,177.15724c0,0 -0.93483,-31.0829 -1.15275,-38.32874c-0.06834,-2.27242 29.99412,-1.78369 42.48154,-1.48275c3.2724,0.07887 0.00454,38.47816 0.00454,38.47816" data-paper-data="{&quot;index&quot;:null}" fill="none" stroke="#000000" stroke-width="5" stroke-linecap="round"/><path d="M323.69908,165.69465c22.0914,0 35.33334,16.90861 35.33334,39c0,22.09139 -15.24195,37 -37.33334,37c-5.82181,0 -14.01981,-4.24374 -19.00942,-6.48003c-13.94392,-6.24949 -20.99058,-13.91705 -20.99058,-30.18663c0,-22.09139 19.90861,-39.33334 42,-39.33334z" data-paper-data="{&quot;index&quot;:null}" fill="url(#color-6)" stroke="none" stroke-width="0" stroke-linecap="butt"/><path d="M360.82184,202.6505c0,0 0.29938,7.55076 -1.87083,13.80402c-1.03367,2.9784 -4.68929,3.60075 -5.35645,6.82057c-1.17971,5.6935 -4.64724,10.84519 -7.394,12.98384c-7.88221,6.13716 -21.06283,3.76735 -27.04539,3.76735c-0.56011,0 -19.54877,-3.39341 -24.89251,-7.77281c-3.30033,-2.70476 -7.34788,-8.28885 -9.01803,-14.0281c-2.52119,-8.66373 -1.75613,-17.68105 -1.75613,-17.68105" data-paper-data="{&quot;index&quot;:null}" fill="url(#color-7)" stroke="#000000" stroke-width="5" stroke-linecap="round"/><path d="M360.86574,205.14258c0,13.89917 -16.04313,25.16667 -35.83334,25.16667c-19.79021,0 -35.83334,-11.2675 -35.83334,-25.16667c0,-13.89917 16.04313,-25.16667 35.83334,-25.16667c9.89529,0 19.52045,-0.84969 26.00503,3.70474c6.48433,4.55425 9.8283,14.51248 9.8283,21.46193z" data-paper-data="{&quot;index&quot;:null}" fill="url(#color-8)" stroke="none" stroke-width="0" stroke-linecap="butt"/><path d="M283.48851,208.84499c0,0 -0.76506,-9.01732 1.75613,-17.68105c1.67015,-5.73925 5.7177,-11.32334 9.01803,-14.0281c6.03439,-4.94544 19.99875,-9.43948 24.89251,-9.43948c5.98256,0 19.16318,-0.70314 27.04539,5.43402c2.74676,2.13865 6.21429,7.29034 7.394,12.98383c0.9468,4.5694 5.92884,5.36408 7.0768,9.58128c1.35928,4.9935 -1.18285,13.04332 -1.18285,13.04332" data-paper-data="{&quot;index&quot;:null}" fill="url(#color-9)" stroke="#000000" stroke-width="5" stroke-linecap="round"/><path d="M288.48851,207.36283c0,0 -0.76506,-5.79707 1.75613,-11.36682c1.67015,-3.68966 5.7177,-7.27957 9.01803,-9.01841c6.03439,-3.17933 19.99875,-6.28276 24.89251,-6.28276c5.98256,0 19.16318,-0.23774 27.04539,3.70772c2.74676,1.3749 6.21429,4.68682 7.394,8.34707c2.06788,6.41592 0.56061,13.90206 0.56061,13.90206" data-paper-data="{&quot;index&quot;:null}" fill="none" stroke="#000000" stroke-width="5" stroke-linecap="round"/><path d="M359.15517,202.73762c0,0 1.50727,7.48614 -0.56061,13.90206c-1.17971,3.66025 -4.64724,6.97217 -7.394,8.34707c-7.88221,3.94546 -21.06283,3.70772 -27.04539,3.70772c-4.89376,0 -18.85812,-3.10343 -24.89251,-6.28276c-3.30033,-1.73884 -7.34788,-5.32875 -9.01803,-9.01841c-2.52119,-5.56975 -1.75613,-11.36682 -1.75613,-11.36682" data-paper-data="{&quot;index&quot;:null}" fill="none" stroke="#000000" stroke-width="5" stroke-linecap="round"/><path d="M315.54375,221.69216c-5.27811,0 -9.55686,-7.83501 -9.55686,-17.5c0,-9.66499 4.27875,-17.5 9.55686,-17.5c5.27811,0 9.55686,7.83501 9.55686,17.5c0,9.66499 -4.27875,17.5 -9.55686,17.5z" data-paper-data="{&quot;index&quot;:null}" fill="url(#color-10)" stroke="none" stroke-width="0" stroke-linecap="butt"/><path d="M337.46582,221.30924c-5.27811,0 -9.55686,-7.83501 -9.55686,-17.5c0,-9.66499 4.27875,-17.5 9.55686,-17.5c5.27811,0 9.55686,7.83501 9.55686,17.5c0,9.66499 -4.27875,17.5 -9.55686,17.5z" data-paper-data="{&quot;index&quot;:null}" fill="url(#color-11)" stroke="none" stroke-width="0" stroke-linecap="butt"/></g></g></svg>